<?xml version="1.0" encoding="utf-8"?>
<!-- Generator: Adobe Illustrator 23.0.0, SVG Export Plug-In . SVG Version: 6.00 Build 0)  -->
<svg version="1.1" id="Layer_1" xmlns="http://www.w3.org/2000/svg" xmlns:xlink="http://www.w3.org/1999/xlink" x="0px" y="0px"
	 viewBox="0 0 300 300" style="enable-background:new 0 0 300 300;" xml:space="preserve">
<style type="text/css">
	.st0{fill:#FFFFFF;}
	.st1{fill:#004747;}
	.st2{fill:#B8D8C0;}
	.st3{fill:none;stroke:#004747;stroke-width:7;stroke-miterlimit:10;}
	.st4{fill:none;stroke:#004747;stroke-width:7;stroke-linecap:round;stroke-linejoin:round;stroke-miterlimit:10;}
	.st5{fill:none;stroke:#004747;stroke-width:6;stroke-linecap:round;stroke-miterlimit:10;}
	.st6{fill:#F5F5F5;}
</style>
<g>
	<circle class="st0" cx="150" cy="150" r="150"/>
</g>
<g>
	<path class="st1" d="M186,183.5c-3.3-0.5-6.3-0.6-9.1-0.4c9.1-6.8,13.8-16.4,13.9-28.6c0-4.2-2-5.4-5.1-5.9
		c-3.1-0.5-6.1-0.6-8.9-0.4c0.4-0.3,0.9-0.6,1.3-1c8.3-6.6,12.6-16,12.7-27.8c0-3.1-1.8-5.2-4.9-5.7c-4.5-0.7-8.7-0.7-12.6,0.1
		c-3.8,0.7-7.1,1.9-10.1,3.5c2.8-6.2,3.8-13,3-20.3c-1.1-9.1-5.2-17.1-12.3-23.8c-2.8-2.7-5-2.7-7.8,0c-8.2,7.9-12.5,17.5-12.6,28.4
		v0c0,2.1,0.1,3.8,0.3,5.4c0.6,3.7,1.6,7.1,3,10.4c-4.8-2.7-10.4-4.1-16.7-4.3c-2.1-0.1-4,0.2-5.9,0.5l-0.6,0.1
		c-2.6,0.4-4.2,2.1-4.4,4.8c-0.1,1.5,0,3,0.1,4.3c0.7,8.7,3.7,15.6,9.1,21.1c1.5,1.5,3.1,2.9,4.8,4.2c-3-0.2-6.2-0.1-9.5,0.4
		c-2.7,0.4-4.4,2.3-4.4,5.1c-0.1,2.3,0,4.5,0.4,6.6c1.3,8.7,5.1,15.8,11.4,21c0.7,0.6,1.5,1.2,2.2,1.8c-2.4-0.2-4.9-0.1-7.5,0.1
		l-0.7,0.1c-5,0.5-5.8,2.6-5.8,7.1c0,0.4,0,0.9,0,1.5l0,0.1l0,0.1c0.3,6.4,2.3,15.7,10.6,23.2c7.5,6.8,16.7,11.1,28,13.2
		c0.4,0.1,0.7,0.1,1,0.1c0.4,0,0.8-0.1,1.1-0.1c0.3,0.1,0.7,0.1,1,0.1c0.4,0,0.8,0,1.2-0.1c10.6-2,19.3-6,26.7-12.2
		c7.7-6.5,11.7-15.6,11.8-27.1C190.9,186,189,183.9,186,183.5z M183.8,155.5c-0.3,9.8-4.2,17.2-11.9,22.6
		c-5.5,3.8-11.5,6.5-18.3,8.1l0-0.4c0-5.9,1-11.1,2.9-15.8c3.3-7.9,9.3-12.6,18.4-14.3C177.7,155.1,180.6,155,183.8,155.5z
		 M174.7,120.9c2.8-0.6,5.8-0.6,9.1-0.2c-0.3,9.1-3.6,16.1-10,21.2c-5.8,4.6-12.4,7.7-20.1,9.5v-0.4c0-5.6,0.9-10.6,2.7-15.2
		C159.5,127.5,165.5,122.7,174.7,120.9z M150,132.8c-0.1-0.1-0.1-0.3-0.2-0.4c0.1,0,0.1,0,0.2,0c0.1,0,0.1,0,0.2,0
		C150.1,132.5,150.1,132.6,150,132.8z M150,79.5c5.3,5.3,8.4,11.6,9.2,18.6c1.2,10.1-1.8,18.8-9.2,26.4c-5.1-5.1-8.1-11.1-9.2-18.2
		c-0.2-1.2-0.3-2.5-0.3-4.3C140.6,93.3,143.7,85.9,150,79.5z M116.3,122.5c-0.1-0.7-0.1-1.3-0.1-1.8c1.3-0.2,2.6-0.3,3.8-0.3l0.1,0
		c7.9,0.1,14.1,2.6,18.9,7.6c3.3,3.4,5.3,7.9,6.5,14.2c0.6,3.3,0.9,6.3,0.9,9.1c-9.7-2.3-17.2-6.3-23-12.1
		C119.2,135,116.9,129.5,116.3,122.5z M147.7,158.8c0.4,0.1,0.8,0.1,1.2,0.1c0.4,0,0.7-0.1,1.1-0.1c0.4,0.1,0.8,0.1,1.1,0.1
		c0.6,0,1.1-0.1,1.4-0.2c1.2-0.2,2.4-0.5,3.5-0.8c-2.4,2.6-4.3,5.7-5.8,9.3c-0.1,0.1-0.1,0.2-0.1,0.4c-1.3-3.2-3.1-6.6-6-9.7
		C145.2,158.3,146.4,158.5,147.7,158.8z M116.5,159.4c-0.2-1.3-0.3-2.6-0.3-3.9c8.2-1,15,0.9,20.9,5.7c3.7,3,6.2,7.3,7.9,13.8
		c1,3.7,1.3,7.7,1.4,11.2c-8.2-1.9-15-5.2-20.9-10.1C120.5,171.9,117.5,166.4,116.5,159.4z M145.5,193.1c0.4,0.1,0.8,0.2,1.1,0.2
		c0.8,0.2,1.6,0.4,2.4,0.4c0.3,0,0.6,0,1-0.1c0.3,0.1,0.6,0.1,0.9,0.1c0.7,0,1.3-0.1,1.9-0.2c1.1-0.2,2.1-0.4,3.1-0.7
		c-1.6,1.7-2.9,3.6-4.1,5.7c-0.7,1.2-1.3,2.5-1.8,3.8c-1-2.6-2.3-4.9-3.9-7c-0.7-0.9-1.5-1.8-2.3-2.6
		C144.4,192.8,145,193,145.5,193.1z M124.6,210c-6.5-5.8-8.1-13.1-8.3-18.2c0-0.5,0-1,0-1.4c0,0,0-0.1,0-0.1l0.2,0
		c10.6-1.1,18.5,2,24.2,9.3c2.6,3.4,4.2,7.7,5.2,13.7c0.4,2.5,0.7,5,0.7,7.6C137.6,218.9,130.5,215.3,124.6,210z M174.5,210.8
		c-5.8,4.9-12.7,8.2-20.8,10.1l0-0.3c0.1-7.7,1.5-13.6,4.3-18.7c3.6-6.5,9.3-10.2,17.6-11.6c2.5-0.4,5.1-0.4,8.3-0.1
		C183.5,199.1,180.4,205.8,174.5,210.8z"/>
	<path class="st1" d="M223.2,76.8c-40.4-40.4-106-40.4-146.4,0c-40.4,40.4-40.4,106,0,146.4c20.2,20.2,46.7,30.3,73.2,30.3
		s53-10.1,73.2-30.3C263.5,182.8,263.5,117.2,223.2,76.8z M218.2,218.2c-36.8,36.8-96.1,37.6-133.9,2.4l21.9-21.9
		c1.4-1.4,1.4-3.6,0-4.9c-1.4-1.4-3.6-1.4-4.9,0l-21.9,21.9c-16.7-17.9-25.8-41.1-25.8-65.7c0-25.8,10-50,28.3-68.2
		C100.6,63,125.3,53.5,150,53.5c23.6,0,47.2,8.6,65.7,25.8l-23.3,23.3c-1.4,1.4-1.4,3.6,0,4.9c0.7,0.7,1.6,1,2.5,1
		c0.9,0,1.8-0.3,2.5-1l23.3-23.3c16.7,17.9,25.8,41.1,25.8,65.7C246.5,175.8,236.5,200,218.2,218.2z"/>
	<path class="st1" d="M41,108.8c-7.4-2.2-8.3,10.3-12,9.2c-1.3-0.4-2-1.7-1.2-4.5c0.5-1.8,1.6-3.6,3.2-5.1l-3.1-2.5
		c-1.7,1.5-3.1,3.9-3.8,6.5c-1.7,5.7,0.4,9.3,3.8,10.3c7.5,2.2,8.3-10.3,12.1-9.2c1.2,0.4,1.8,1.8,1,4.5c-0.7,2.4-2.3,4.7-4.1,6
		l3,2.6c1.9-1.4,3.8-4.3,4.7-7.5C46.4,113.5,44.4,109.8,41,108.8z"/>
	<polygon class="st1" points="55.1,93.7 51.6,92 46.5,102.2 42.2,100.1 46.5,91.3 43.1,89.7 38.8,98.4 34.7,96.4 39.5,86.5 36,84.8 
		29,99 47.9,108.3 	"/>
	<polygon class="st1" points="59.2,87.5 49.5,79.9 61.2,81.3 62.6,79.6 58.3,68.3 68.2,76.1 71,72.5 54.5,59.5 52.1,62.7 57.5,76.8 
		42.4,74.9 39.9,78 56.3,91.1 	"/>
	<path class="st1" d="M88.7,59.1c2.5-1.7,4.6-4.3,5.5-7l-4.8-7l-3.7,2.5l3.5,5.1c-0.6,1.2-1.5,2.1-2.6,2.9c-3.3,2.3-7.2,1.6-9.4-1.7
		c-2.3-3.3-1.5-7.1,1.8-9.4c1.8-1.2,3.6-1.6,5.8-1.1l0.9-4.1c-3-0.8-6.3-0.1-9.3,2c-5.5,3.8-6.9,10.3-3.3,15.5
		C76.7,61.9,83.2,62.8,88.7,59.1z"/>
	<polygon class="st1" points="112.8,46.1 111.1,42.5 101.5,46.8 94.5,31.3 90.1,33.3 98.7,52.4 	"/>
	<path class="st1" d="M123.4,43.6c5.8-1.4,8.4-5.6,6.9-11.6l-2.8-11.4l-4.7,1.2l2.8,11.2c1,3.9-0.3,5.9-3.2,6.6
		c-2.9,0.7-4.9-0.5-5.9-4.3L113.7,24l-4.7,1.2l2.8,11.4C113.4,42.6,117.6,45.1,123.4,43.6z"/>
	<polygon class="st1" points="123,15.5 118.1,16.7 115.2,21.9 118.8,21 	"/>
	<polygon class="st1" points="139.4,23.4 140.5,40.4 145.3,40.1 144.2,23.1 151,22.6 150.7,18.7 132.4,19.9 132.7,23.8 	"/>
	<polygon class="st1" points="170.4,37.6 159,36.4 159.5,31.6 169.2,32.6 169.6,28.8 159.9,27.8 160.4,23.3 171.4,24.4 171.8,20.5 
		156,18.9 153.8,39.8 170,41.5 	"/>
	<polygon class="st1" points="181.3,31.2 187.6,46.4 191.4,47.6 197.5,27.5 192.9,26.1 189.2,38.3 182.9,23.1 179.1,21.9 172.9,42 
		177.5,43.4 	"/>
</g>
</svg>
