<?xml version="1.0" encoding="utf-8"?>
<!-- Generator: Adobe Illustrator 23.0.0, SVG Export Plug-In . SVG Version: 6.00 Build 0)  -->
<svg version="1.1" id="Layer_1" xmlns="http://www.w3.org/2000/svg" xmlns:xlink="http://www.w3.org/1999/xlink" x="0px" y="0px"
	 viewBox="0 0 300 300" style="enable-background:new 0 0 300 300;" xml:space="preserve">
<style type="text/css">
	.st0{fill:#FFFFFF;}
	.st1{fill:#004747;}
	.st2{fill:#B8D8C0;}
	.st3{fill:none;stroke:#004747;stroke-width:7;stroke-miterlimit:10;}
	.st4{fill:none;stroke:#004747;stroke-width:7;stroke-linecap:round;stroke-linejoin:round;stroke-miterlimit:10;}
	.st5{fill:none;stroke:#004747;stroke-width:6;stroke-linecap:round;stroke-miterlimit:10;}
	.st6{fill:#F5F5F5;}
</style>
<g>
	<circle class="st0" cx="150" cy="150" r="150"/>
</g>
<g>
	<path class="st1" d="M113.3,127.5c-1.7,6.8-3.2,13.6-2.5,20.7c1.1,11.2,6.4,19.8,15.6,26.2c8.6,6,18.6,8.6,28.7,10.7
		c1.6,0.3,2.9-0.2,3.9-1.6c3.4-5.1,6.7-10.2,9.6-15.7c4.7-8.9,7.1-18.4,7.2-29.6c0-1.4-0.2-4-0.6-6.5c-2.2-15.9-10.3-28.1-23.7-36.7
		c-11.2-7.2-23.6-9.9-36.8-10c-1.5,0-2.8,0.4-3.4,1.9c-0.7,1.6-0.1,2.8,1,3.9c1.8,1.9,3.1,4.2,3.9,6.7c1.4,4.5,1.3,9,0.7,13.6
		C116,116.6,114.6,122.1,113.3,127.5z M135.6,94.5c6.9,2.3,13.2,5.6,18.6,10.5c7.9,7.2,12.9,16,14.5,26.6c2,13.4-1.1,25.7-8,37.1
		c-0.9,1.5-1.9,3-2.8,4.6c-0.1,0.1-0.2,0.2-0.5,0.4c-0.5-2.9-1-5.7-1.5-8.4c-0.1-0.8,0.5-1.3,0.9-1.9c1.4-2.1,2.9-4.2,4.3-6.3
		c1.2-1.8,0.9-3.6-0.6-4.6c-1.6-1-3.4-0.6-4.6,1.1c-0.5,0.7-0.9,1.3-1.6,2.3c-0.5-2.8-0.8-5.3-1.4-7.8c-0.6-2.4-0.2-4.3,1.2-6.3
		c2.2-3.1,4-6.5,6-9.7c0.3-0.5,0.6-0.9,0.8-1.4c0.8-1.6,0.3-3.3-1.2-4.2c-1.5-0.9-3.3-0.4-4.3,1.1c-1.1,1.8-2.2,3.6-3.3,5.4
		c-0.5,0.7-0.8,1.5-1.7,2.3c-0.9-4.2-1.9-8.1-3.1-11.9c-0.2-0.7,0-1.2,0.3-1.8c1.6-2.5,3.1-5.1,4.7-7.7c1.1-1.9,0.8-3.7-0.7-4.7
		c-1.5-1-3.4-0.5-4.5,1.4c-0.9,1.4-1.7,2.8-2.7,4.5c-3.7-8.6-8.7-16.1-16.1-22.4C131.1,93.1,133.3,93.8,135.6,94.5z M117,141.3
		c0.7-7.3,3.1-14.3,4.6-21.5c1-5,1.9-9.9,1.9-15c0-2.8-0.4-5.5-1-8.3c6.4,4.4,10.7,10.4,14.4,17.3c-0.6,0-1-0.4-1.3-0.6
		c-1.6-0.9-3.5-0.5-4.4,0.9c-0.9,1.5-0.7,3.3,0.9,4.3c2.7,1.9,5.5,3.7,8.3,5.6c0.5,0.3,0.9,0.7,1.1,1.3c1.3,4.1,2.3,8.3,3.2,12.5
		c0,0.1,0,0.3-0.1,0.6c-1.8-0.9-3.5-1.7-5.2-2.6c-2.1-1-4.1-2.1-6.2-3.2c-2-1-3.8-0.5-4.6,1.2c-0.8,1.7-0.2,3.4,1.8,4.4
		c4.8,2.5,9.6,5,14.4,7.4c1.1,0.5,1.7,1.3,1.9,2.5c0.5,3.3,1.1,6.6,1.7,10c0.1,0.3,0.2,0.7-0.1,1c-0.3,0.2-0.6-0.1-0.9-0.2
		c-3.2-1.3-6.3-2.7-9.5-4c-2.2-0.9-4.1,0.3-4.4,2.5c-0.2,1.4,0.6,2.7,2.1,3.3c4.2,1.8,8.4,3.6,12.6,5.4c1,0.4,1.6,1,1.8,2.1
		c0.5,3,1.1,6.1,1.6,9.1c0.1,0.5,0.3,1-0.6,0.8c-10-2.4-19.6-5.7-26.9-13.5C118.2,157.8,116.2,150,117,141.3z"/>
	<path class="st1" d="M219.9,178.2c-3.8-3.8-8.5-6-13.3-7.9c-2-0.8-3.9,0.5-4.2,2.6c-0.2,1.4,0.6,2.6,2.2,3.3
		c3.5,1.6,7.1,3.2,10,5.7c1.7,1.5,3.2,3.2,3.4,5.7c0.2,3-1.6,5-3.7,6.7c-4.5,3.6-9.7,5.9-15.2,7.7c-14.3,4.7-29.1,6.1-44,6.6
		c-11.8,0.4-23.6-0.5-35.3-2.3c-9.3-1.4-18.3-3.7-27-7.5c-3.7-1.7-7.2-3.6-9.6-7.1c-1.8-2.6-1.7-5.6,0.4-8c1.4-1.6,3-2.8,4.8-3.9
		c2.3-1.5,4.9-2.5,7.3-3.8c1.7-0.8,2.3-2.5,1.6-4.1c-0.7-1.6-2.4-2.2-4.2-1.6c-0.7,0.2-1.3,0.6-2,0.9c-4.3,1.9-8.4,4.2-11.7,7.6
		c-4.3,4.5-5.1,10.1-2.1,15.6c2.2,3.9,5.6,6.4,9.4,8.5c5.5,3,11.3,4.9,17.3,6.5c15,4.1,30.3,5.3,44.8,5.6c9.7-0.1,18.3-0.6,26.9-1.7
		c8.5-1.1,16.9-2.5,25-5.3c6.6-2.3,13-4.9,18.3-9.6C225.8,192.5,226,184.4,219.9,178.2z"/>
	<path class="st1" d="M102.8,194.1c3.6,2.8,7.8,4.2,12.1,5.3c11.8,2.8,23.8,3.6,34.2,3.8c10.3,0,19-0.6,27.5-2.1
		c5.4-0.9,10.8-1.9,15.9-4.3c2.5-1.2,4.9-2.4,6.6-4.7c1.9-2.6,1.8-6.2-0.2-8.6c-1-1.2-2.3-2.2-3.7-3c-3.9-2.1-8.2-3.2-12.5-4.1
		c-1.7-0.4-3.1,0.7-3.5,2.3c-0.4,1.6,0.4,3.1,2,3.6c1,0.3,2,0.5,3.1,0.8c2.8,0.8,5.6,1.5,8.1,3c2.2,1.3,2.2,2.2,0.1,3.5
		c-1.7,1.1-3.5,2-5.5,2.6c-10.2,3.2-20.7,4.2-31.2,4.6c-6.4,0.2-12.7,0-19.1-0.5c-6.9-0.5-13.7-1.4-20.4-3c-3.3-0.8-6.6-1.8-9.5-3.9
		c-1.5-1.1-1.5-1.5,0.1-2.6c1.5-0.9,3-1.7,4.6-2.4c2.2-0.9,4.5-1.4,6.7-2.2c1.8-0.6,2.6-2.1,2.1-3.7c-0.5-1.8-2-2.6-3.8-2.2
		c-0.6,0.1-1.2,0.3-1.8,0.5c-4.4,1.3-8.7,2.6-12.3,5.5c-1.9,1.6-3.4,3.5-3.2,6.2C99.7,190.9,101,192.7,102.8,194.1z"/>
	<path class="st1" d="M223.2,76.8c-40.4-40.4-106-40.4-146.4,0c-40.4,40.4-40.4,106,0,146.4c20.2,20.2,46.7,30.3,73.2,30.3
		s53-10.1,73.2-30.3C263.5,182.8,263.5,117.2,223.2,76.8z M218.2,218.2c-37.6,37.6-98.8,37.6-136.5,0C63.5,200,53.5,175.8,53.5,150
		s10-50,28.3-68.2C100.6,63,125.3,53.5,150,53.5c24.7,0,49.4,9.4,68.2,28.2C255.9,119.4,255.9,180.6,218.2,218.2z"/>
	<polygon class="st1" points="55.9,92.8 45.3,85.7 61.7,84.1 63.9,80.8 46.5,69.1 43.8,73.1 54.4,80.2 38,81.8 35.7,85.1 53.2,96.8 
			"/>
	<path class="st1" d="M68,76.2l-1.8-4.5l7-6.8l4.5,1.9l3.7-3.5L60,54.8l-3.5,3.3l7.9,21.6L68,76.2z M69.6,63.3L64.8,68l-3.2-8.1
		L69.6,63.3z"/>
	<polygon class="st1" points="75.7,46.9 85.5,60.9 89.4,58.1 79.7,44.1 85.3,40.3 83,37 68,47.4 70.2,50.7 	"/>
	<path class="st1" d="M104.8,50.1c5.4-2.5,7.3-7,4.7-12.7l-4.8-10.7l-4.4,2l4.8,10.6c1.6,3.6,0.8,5.8-1.9,7.1
		c-2.7,1.2-4.9,0.4-6.6-3.2l-4.8-10.6l-4.4,2l4.8,10.7C94.7,50.9,99.4,52.5,104.8,50.1z"/>
	<path class="st1" d="M121.8,43.6l-1.3-5.7l4.1-0.9l0.2-0.1l5.3,4.8l5.1-1.2l-0.2-0.1l4.9-0.1l1.7-4.6l9.7-0.3l2,4.4l5.1-0.2
		l-10-20.7l-4.8,0.1L135,40.4l-5.9-5.4c2.4-1.8,3.4-4.4,2.7-7.4c-1.1-4.6-5.1-6.6-10.6-5.4l-8.9,2l4.7,20.5L121.8,43.6z M146.2,23.8
		l3.6,7.9l-6.7,0.2L146.2,23.8z M121.8,26.1c2.9-0.7,4.7,0.3,5.2,2.6c0.5,2.2-0.6,3.9-3.5,4.6l-3.9,0.9L118,27L121.8,26.1z"/>
	<polygon class="st1" points="175.6,38.6 165.2,37 167.7,20.2 162.9,19.5 159.8,40.2 175,42.5 	"/>
</g>
</svg>
