<?xml version="1.0" encoding="utf-8"?>
<!-- Generator: Adobe Illustrator 23.0.0, SVG Export Plug-In . SVG Version: 6.00 Build 0)  -->
<svg version="1.1" id="Layer_1" xmlns="http://www.w3.org/2000/svg" xmlns:xlink="http://www.w3.org/1999/xlink" x="0px" y="0px"
	 viewBox="0 0 300 300" style="enable-background:new 0 0 300 300;" xml:space="preserve">
<style type="text/css">
	.st0{fill:#FFFFFF;}
	.st1{fill:#004747;}
	.st2{fill:#B8D8C0;}
	.st3{fill:none;stroke:#004747;stroke-width:7;stroke-miterlimit:10;}
	.st4{fill:none;stroke:#004747;stroke-width:7;stroke-linecap:round;stroke-linejoin:round;stroke-miterlimit:10;}
	.st5{fill:none;stroke:#004747;stroke-width:6;stroke-linecap:round;stroke-miterlimit:10;}
	.st6{fill:#F5F5F5;}
</style>
<g>
	<circle class="st0" cx="150" cy="150" r="150"/>
</g>
<g>
	<path class="st1" d="M223.2,76.8c-40.4-40.4-106-40.4-146.4,0c-40.4,40.4-40.4,106,0,146.4c20.2,20.2,46.7,30.3,73.2,30.3
		s53-10.1,73.2-30.3C263.5,182.8,263.5,117.2,223.2,76.8z M218.2,218.2c-37.6,37.6-98.8,37.6-136.5,0c-37.6-37.6-37.6-98.8,0-136.5
		C100.6,63,125.3,53.5,150,53.5s49.4,9.4,68.2,28.2C255.9,119.4,255.9,180.6,218.2,218.2z"/>
	<polygon class="st1" points="55.9,92.8 51.5,89.9 50.6,85.9 61.2,84.8 64.3,80.1 49.5,81.4 46.5,69 43.5,73.5 46.6,86.7 38.4,81.3 
		35.7,85.3 53.3,96.8 	"/>
	<path class="st1" d="M72.1,72.9c4.6-4.7,4.7-11.5,0.2-15.8c-4.5-4.4-11.2-4-15.8,0.7c-4.6,4.8-4.7,11.5-0.2,15.8
		C60.8,77.9,67.5,77.6,72.1,72.9z M59.4,60.6c2.6-2.7,6.5-2.8,9.4,0s2.9,6.7,0.3,9.4c-2.6,2.7-6.5,2.8-9.4,0
		C56.8,67.3,56.8,63.3,59.4,60.6z"/>
	<path class="st1" d="M88.1,52c0.7,1.1,0.3,2.5-2.1,4.1c-2.1,1.4-4.8,2.2-7,2.1l0.7,4c2.3,0.1,5.7-0.9,8.4-2.8
		c5-3.4,5.7-7.5,3.7-10.4c-4.3-6.4-12.9,2.7-15.1-0.5c-0.7-1.1-0.4-2.6,1.9-4.2c1.5-1,3.5-1.7,5.7-1.9l-0.8-3.9
		c-2.3,0.1-4.9,1.1-7.1,2.6c-4.9,3.4-5.6,7.4-3.6,10.4C77.3,57.9,85.9,48.8,88.1,52z"/>
	<polygon class="st1" points="101.9,50.9 98.5,43 107.3,39.2 110.7,47.1 115.1,45.2 106.8,25.9 102.4,27.8 105.6,35.4 96.9,39.2 
		93.6,31.6 89.1,33.6 97.5,52.8 	"/>
	<polygon class="st1" points="135,40.7 134.1,36.9 123,39.3 121.9,34.6 131.5,32.5 130.6,28.8 121.1,30.9 120.1,26.4 130.9,24.1 
		130.1,20.2 114.6,23.6 119.1,44.1 	"/>
	<path class="st1" d="M142.8,40.2l-0.2-5.8l4.2-0.1l0.2,0l4.2,5.7l5.2-0.2l-4.9-6.6c2.7-1.3,4.2-3.6,4.1-6.8
		c-0.2-4.7-3.8-7.5-9.4-7.3l-9.1,0.3l0.7,21L142.8,40.2z M146.2,23c3-0.1,4.5,1.2,4.6,3.5c0.1,2.3-1.4,3.7-4.4,3.8l-4,0.1l-0.2-7.3
		L146.2,23z"/>
	<path class="st1" d="M217.8,179.5c-0.1-0.1-0.2-0.1-0.3-0.2c-1.9-1.6-3.8-3.3-5.7-4.9c-0.2-0.1-0.3-0.3-0.4-0.5
		c-4.6-11.7-9.1-23.4-13.7-35.2c-0.1-0.2-0.1-0.4,0.1-0.6c2-3.1,3.9-6.2,5.9-9.2c2.1-3.2,4.4-6.3,7.2-8.9c1.7-1.6,3.5-3,5.8-3.8
		c0.1,0,0.2-0.3,0.3-0.5c-6.7,0-13.3,0-19.9,0c0,0.2,0,0.3,0,0.4c1,0.3,1.9,0.8,2.6,1.4c1.6,1.5,2.5,3.2,2.2,5.5
		c-0.2,1.7-0.8,3.3-1.7,4.8c-1.1,1.9-2.3,3.7-3.4,5.5c-2.9,4.6-5.8,9.2-8.8,13.9c-0.1,0.1-0.2,0.2-0.2,0.3c0,0,0,0-0.1,0
		c0-0.1,0-0.3,0-0.4c0-7.8,0-15.6,0-23.5c0-0.2,0.1-0.5,0.2-0.7c1.1-1.5,2.3-2.9,3.4-4.4c0.1-0.1,0.2-0.3,0.1-0.5
		c-0.1-0.3-0.3-0.6-0.4-0.9c-0.1,0.2-0.2,0.3-0.4,0.4c-1.2,1.5-2.4,3.1-3.6,4.6c-0.1,0.2-0.2,0.5-0.2,0.7c0,8.6,0,17.2,0,25.7
		c0,0.2-0.1,0.5-0.2,0.6c-0.5,0.9-1.1,1.7-1.7,2.5c-0.1,0.1-0.1,0.2-0.3,0.3c0-0.2,0-0.3,0-0.5c0-9.8,0-19.5,0-29.3
		c0-0.2,0.1-0.4,0.2-0.6c1.1-1.4,2.3-2.8,3.4-4.3c0.5-0.7,1-1.3,1.6-2c-5.9,0-11.6,0-17.5,0c0.1,0.2,0.2,0.3,0.3,0.4
		c1.4,1.7,2.9,3.5,4.3,5.3c0.1,0.2,0.2,0.4,0.2,0.6c0,17.2,0,34.4,0,51.5c0,0.2-0.1,0.4-0.2,0.6c-1.5,1.7-3,3.4-4.5,5.1
		c-0.1,0.1-0.2,0.3-0.3,0.4c5.7,0,11.4,0,17.1,0c-0.1-0.1-0.2-0.2-0.2-0.3c-1.3-1.6-2.7-3.2-4-4.8c-0.1-0.2-0.2-0.4-0.2-0.6
		c0-4.9,0-9.9,0-14.8c0-0.2,0.1-0.5,0.2-0.6c2.5-3.9,4.9-7.8,7.4-11.7c0.1-0.1,0.1-0.2,0.2-0.3c0.2,0.7,0.5,1.3,0.7,1.8
		c0.1,0.3,0.1,0.4-0.1,0.7c-2.1,3.3-4.1,6.7-6.1,10c-0.1,0.2-0.2,0.5-0.2,0.7c0,4.9,0,9.7,0,14.6c0,0.2,0.1,0.5,0.2,0.7
		c1.4,2.3,2.9,4.6,4.3,6.9c0.1,0.1,0.1,0.2,0.2,0.4c-6,0-12,0-18,0c0.3,0.4,0.5,0.6,0.7,0.9c0.2,0.3,0.4,0.3,0.7,0.3
		c6,0,12.1,0,18.1,0c0.2,0,0.4,0,0.7,0c-0.1-0.2-0.2-0.3-0.2-0.4c-1.9-2.9-3.8-5.9-5.7-8.8c-0.1-0.2-0.2-0.4-0.2-0.6
		c0-4.5,0-9.1,0-13.6c0-0.2,0.1-0.4,0.2-0.6c1.6-2.6,3.2-5.2,4.8-7.8c0.4-0.6,0.7-1.2,1.1-1.8c0.6,1.5,1.1,2.9,1.6,4.3
		c2.5,6.7,5.1,13.4,7.6,20.1c0.1,0.2,0.1,0.4-0.1,0.6c-1.2,1.2-2.4,2.3-3.6,3.5c-0.3,0.3-0.7,0.7-1.1,1c0,0,0,0.1,0.1,0.1
		C204.9,179.5,211.3,179.5,217.8,179.5C217.8,179.5,217.8,179.5,217.8,179.5z"/>
	<path class="st1" d="M108.4,163.2c2.8-0.7,5.2-2.1,7-4.3c2.3-2.8,2.8-6.1,2.2-9.6c-0.6-3.8-2.7-6.7-6-8.8c-0.5-0.3-1-0.5-1.5-0.9
		c5.7-2.2,8.8-6.2,8.4-12.5c-0.2-3.4-2.8-7.8-5.3-8.8c0.1,0.1,0.2,0.2,0.3,0.3c2.3,2.2,3.8,4.8,4.1,8c0.2,2.4-0.1,4.7-1.3,6.8
		c-1.6,2.9-4,4.6-7.1,5.5c-0.4,0.1-0.7,0.1-1,0c-0.5-0.2-0.9-0.3-1.4-0.4c-0.2,0-0.4-0.1-0.3-0.3c0-0.1,0.2-0.3,0.3-0.3
		c0.8-0.3,1.5-0.5,2.3-0.9c1.9-0.8,3.6-2,4.7-3.7c1.9-2.9,2.1-6.1,1-9.3c-1.3-3.7-4-5.9-7.6-7.2c-2.6-1-5.3-1.2-8.1-1.2
		c-6.3-0.1-12.7-0.1-19-0.1c-0.9,0-1.8,0-2.7,0c0,0,0,0.1,0,0.1c0.1,0.1,0.2,0.2,0.3,0.3c1.1,1.2,2.2,2.4,3.3,3.6
		c0.2,0.2,0.3,0.4,0.3,0.7c0,5.4,0,10.9,0,16.3c0,0.1,0,0.3,0,0.5c-1.4-0.1-2.9-0.1-4.3-0.2c-0.2,0-0.3,0-0.4,0.2
		c-0.3,0.6-0.5,1.2-0.8,1.8c-0.2,0.5-0.4,1-0.7,1.5c2.1-0.1,4.1-0.2,6.2-0.3c0,0.7,0,1.4,0,2c-1.8,0.1-3.6,0.2-5.5,0.4
		c0.1,0.4,0.2,0.7,0.3,1.1c1.7-0.2,3.4-0.5,5.2-0.4c0,0.1,0,0.2,0,0.3c0,5.2,0,10.4,0,15.7c0,0.2-0.1,0.4-0.2,0.5
		c-1.1,1-2.3,2-3.4,2.9c-0.5,0.4-0.9,0.8-1.5,1.3c0.3,0,0.4,0,0.5,0c8.7,0,17.5,0,26.2,0C104.7,163.9,106.5,163.7,108.4,163.2z
		 M88.7,118.9c0.3,0,0.5,0,0.8-0.1c2.9-0.1,5.8,0,8.7,0.4c2.2,0.3,4.2,0.9,5.9,2.3c2.1,1.6,3.2,3.8,3.2,6.4c0,2.3-0.6,4.3-2.3,5.9
		c-1.1,1-2.4,1.6-3.8,2c-2.3,0.7-4.6,0.9-7,1c-0.9,0-1.7,0-2.7,0c0-0.2,0-0.3,0-0.5c0-4.5,0-9.1,0-13.6c0-0.6,0-0.6,0.6-0.7
		c2.6-0.3,5.2-0.3,7.8,0.4c1.8,0.5,3.3,1.6,4.5,3.1c0.4,0.5,0.8,0.8,1.4,1c-0.9-1.7-1.9-3-3.5-3.9c-1.8-1-3.7-1.5-5.7-1.5
		c-1.3,0-2.7-0.1-4-0.1c-0.6,0-1.2,0.1-1.8,0.2c-0.2,0-0.3,0.1-0.3,0.4c0,0.1,0,0.3,0,0.4c0,4.8,0,9.5,0,14.3c0,0.1,0,0.3,0,0.5
		c-0.6,0-1.2,0-1.9,0C88.7,130.8,88.7,124.9,88.7,118.9z M97.8,160.8c-1.9,0.1-3.9,0.1-5.8,0.2c-0.1,0-0.3,0-0.4,0
		c0-5.9,0-11.7,0-17.6c0.1,0,0.3,0,0.4,0c2.5-0.1,5-0.1,7.5,0.2c2,0.3,4,0.7,5.7,2c0.8,0.6,1.4,1.4,2.1,2.1c0.1,0.1,0.3,0.2,0.5,0.2
		c-0.4-0.9-0.9-1.7-1.6-2.5c-1.4-1.5-3.1-2.3-5.1-2.6c-3-0.5-6-0.6-9-0.4c-0.5,0-1,0.1-1.5,0.1c0,6.2,0,12.3,0,18.4
		c-0.7,0-1.3,0-1.9,0c0-6.9,0-13.8,0-20.7c0.9-0.1,1.7-0.1,2.6-0.1c3.2-0.1,6.3,0,9.4,0.6c1.1,0.2,2.3,0.5,3.4,0.9
		c2.2,0.8,3.6,2.4,4.2,4.5c0.8,2.6,0.9,5.3,0.1,7.9c-0.9,3.1-3,5-6.1,6C100.9,160.5,99.4,160.7,97.8,160.8z"/>
	<path class="st1" d="M130.5,160.2c-0.8,0.6-1.6,1.2-2.4,1.8c-0.8,0.6-1.5,1.2-2.3,1.8c0.2,0,0.3,0,0.5,0c5.1,0,10.3,0,15.4,0
		c2.7,0,5.5-0.1,8.2-0.7c4.2-0.8,7.7-2.8,10.5-6c2.3-2.7,3.6-5.8,4.3-9.2c1-4.6,1.2-9.3,0.5-14c-0.4-2.8-1.1-5.5-2.4-8.1
		c-2.2-4.1-5.3-7.1-9.8-8.7c-3-1-6.1-1.5-9.3-1.5c-5.5-0.1-11,0-16.4,0c-0.1,0-0.1,0-0.3,0c0.1,0.1,0.2,0.2,0.2,0.3
		c1.1,1.2,2.3,2.5,3.4,3.7c0.1,0.2,0.2,0.4,0.2,0.6c0,2.1,0,4.2,0,6.3c0,10.9,0,21.8,0,32.7C130.9,159.8,130.8,160,130.5,160.2z
		 M138.2,160.5c0-13.7,0-27.4,0-41.1c0-0.2,0-0.3,0-0.5c1,0,2,0,3,0c2,0.1,3.9,0.3,5.9,0.8c3.7,1,6.2,3.3,7.9,6.7
		c1,2.2,1.6,4.5,1.9,6.9c0.4,2.9,0.5,5.9,0.3,8.8c-0.2,3.6-0.7,7.2-2.1,10.6c-0.9,2.2-2.2,4.1-4,5.7c-1.7,1.5-3.6,2.3-5.8,2.5
		c-1.1,0.1-2.2,0.1-3.3,0.2c-0.2,0-0.4,0-0.7,0c0-13,0-25.9,0-38.8c3.7-0.4,7.3,0,10.8,1.5c-0.1-0.1-0.1-0.1-0.2-0.2
		c-0.1-0.1-0.1-0.1-0.2-0.2c-1.6-1.4-3.5-2.1-5.6-2.2c-1.8-0.1-3.6-0.1-5.4,0.2c-0.2,0-0.3,0.1-0.3,0.4c0,0.2,0,0.3,0,0.5
		c0,12.7,0,25.4,0,38.1c0,0.2,0,0.4,0,0.5c0,0.1-0.1,0.2-0.2,0.2c-0.5,0-1.1,0-1.6,0c-0.1,0-0.2-0.1-0.2-0.2
		C138.2,160.7,138.2,160.6,138.2,160.5z"/>
	<path class="st1" d="M224.6,183.3c-3.3-2.9-6.6-5.9-9.8-8.8c-0.2-0.2-0.4-0.5-0.5-0.8c-4.3-11.6-8.7-23.3-13-34.9
		c-0.1-0.2-0.1-0.4,0.1-0.7c1.7-2.4,3.3-4.8,4.9-7.2c1.4-2.1,2.8-4.2,4.5-6c1.5-1.6,3.1-3.1,5.2-3.9c0.9-0.4,1.9-0.6,2.8-0.9
		c0-0.1-0.1-0.2-0.1-0.4c-0.2-0.6-0.2-0.5-0.8-0.4c-1.5,0.3-2.8,0.9-4,1.7c-2.3,1.5-4.2,3.5-5.8,5.8c-2.6,3.8-5.2,7.7-7.8,11.6
		c-0.1,0.1-0.1,0.3,0,0.5c0.4,1.2,0.9,2.3,1.3,3.5c4.1,10.8,8.1,21.6,12.2,32.4c0.1,0.3,0.3,0.5,0.5,0.7c2.4,2.2,4.9,4.4,7.3,6.6
		c0.1,0.1,0.2,0.2,0.3,0.3c-7.3,0-14.5,0-21.7,0c0.3,0.3,0.5,0.6,0.7,0.9c0.2,0.3,0.4,0.4,0.8,0.4c7.5,0,15,0,22.5,0
		c0.3,0,0.5,0,0.9,0C224.8,183.5,224.7,183.4,224.6,183.3z"/>
	<path class="st1" d="M166.7,127.3c-1.1-2.4-2.6-4.5-4.8-6.1c-0.2-0.1-0.4-0.3-0.6-0.4c0,0.1,0,0.1,0,0.1c0.2,0.2,0.3,0.3,0.5,0.5
		c1.4,1.5,2.7,3,3.6,4.9c1.7,3.5,2.4,7.2,2.6,11c0.1,2.3,0.1,4.6-0.1,7c-0.3,2.9-0.8,5.6-1.9,8.3c-2.5,6.3-7,10.4-13.6,12.2
		c-3.5,0.9-7,1.1-10.6,1.2c-4.6,0-9.1,0-13.7,0c-0.1,0-0.3,0-0.5,0c0.2,0.3,0.3,0.5,0.4,0.7c0.1,0.2,0.3,0.3,0.5,0.3
		c4.6,0,9.2,0,13.9,0c3.1,0,6.2-0.3,9.3-1c2.6-0.6,5-1.4,7.2-2.8c3.1-2,5.4-4.7,7-8c1.8-3.6,2.6-7.5,2.9-11.5c0.2-3,0.2-6.1-0.1-9.1
		C168.3,132.1,167.7,129.6,166.7,127.3z"/>
	<path class="st1" d="M78.4,166.9c8.6,0,17.1,0,25.7,0c2.3,0,4.5-0.3,6.7-0.9c4.4-1.3,7.5-4.1,9.2-8.4c0.9-2.4,1.1-4.9,0.8-7.5
		c-0.2-1.9-0.8-3.7-1.9-5.2c-0.5-0.8-1.2-1.4-1.9-2c-0.2,0.1-0.3,0.2-0.4,0.3c0.1,0.1,0.2,0.2,0.2,0.3c3.5,4.3,4.1,9.2,2.2,14.3
		c-1.5,4-4.7,6.3-8.8,7.4c-2.7,0.7-5.6,0.8-8.4,0.8c-7.9,0-15.8,0-23.6,0c-0.2,0-0.3,0-0.6,0c0.2,0.3,0.3,0.5,0.4,0.7
		C78,166.9,78.1,166.9,78.4,166.9z"/>
	<path class="st1" d="M83.2,183c1.3,0,2.5,0,3.8,0c-0.4-0.2-0.7-0.4-1-0.6c-0.1-0.1-0.3-0.2-0.4-0.4c-0.9-1.7-1.7-3.4-2.6-5.1
		c-0.1-0.2-0.1-0.3,0.1-0.5c0.4-0.4,0.7-0.8,1.1-1.2c0.7-0.8,1.5-1.6,2.6-2c0,0,0,0,0-0.1c-1.3,0-2.5,0-3.8,0
		c0.1,0.1,0.1,0.1,0.2,0.1c0.7,0.3,0.8,0.8,0.5,1.5c-0.1,0.2-0.2,0.3-0.4,0.5c-0.7,0.9-1.4,1.7-2.1,2.6c0,0.1-0.1,0.1-0.2,0.2
		c0-1.1,0-2.1,0-3.1c0-0.5,0.1-0.8,0.5-1.1c0.1-0.1,0.2-0.2,0.3-0.3c0,0-0.1-0.1-0.1-0.1c-0.2,0.2-0.3,0.3-0.5,0.5
		c-0.3,0.2-0.4,0.5-0.4,0.9c0,1.1,0,2.2,0,3.4c0,0.3-0.1,0.5-0.4,0.7c0-0.1,0-0.1,0-0.1c0-1.4,0-2.8,0-4.3c0-0.1,0.1-0.3,0.2-0.4
		c0.2-0.3,0.5-0.5,0.8-0.8c-1.2,0-2.3,0-3.5,0c0.3,0.3,0.5,0.4,0.7,0.7c0.1,0.1,0.2,0.3,0.2,0.5c0,2.5,0,5,0,7.5
		c0,0.2-0.1,0.4-0.2,0.5c-0.2,0.2-0.5,0.4-0.7,0.6c1.2,0,2.2,0,3.4,0c-0.3-0.3-0.7-0.5-0.8-0.8c-0.1-0.8-0.2-1.7,0-2.5
		c0.2-0.7,1-1.2,1.5-1.9c0.2,0.2,0.2,0.3,0.1,0.5c-0.4,0.5-1,1-1.2,1.6c-0.2,0.6-0.1,1.3,0,2c0,0.2,0.1,0.4,0.2,0.6
		c0.2,0.3,0.5,0.6,0.8,1c-1.3,0-2.5,0-3.6,0c0,0.1,0,0.1,0,0.2c1.3,0,2.6,0,4,0c-0.4-0.5-0.7-0.8-1-1.2c-0.1-0.1-0.2-0.3-0.2-0.4
		c0-0.6,0-1.3,0-1.9c0-0.1,0-0.2,0.1-0.2c0.4-0.5,0.8-1,1.2-1.5c0.6,1.3,1.2,2.5,1.8,3.7c0,0.1,0,0.3-0.1,0.3
		C83.7,182.6,83.4,182.8,83.2,183z"/>
	<path class="st1" d="M129,182.9C129.1,182.9,129.1,182.9,129,182.9L129,182.9C129.1,182.9,129,182.9,129,182.9z"/>
	<path class="st1" d="M128.2,182c0-1.1,0-2.2,0-3.3c0-0.1,0-0.1,0.1-0.2c0.3,0,0.6,0,0.8,0c0.7,0,1.5-0.1,2.2-0.2
		c1.3-0.2,2.1-1.1,2.2-2.3c0.1-1.2-0.6-2.2-1.9-2.6c-0.3-0.1-0.6-0.2-1-0.2c-1.6,0-3.2-0.1-4.8-0.1c0,0,0,0-0.1,0.1
		c0.2,0.2,0.3,0.3,0.5,0.5c0.3,0.2,0.4,0.5,0.4,0.8c0,0.8,0,1.6,0,2.5c0,0.3,0,0.6,0,0.8c-1.1,0.2-1.5,0.4-1.6,0.9
		c0.4-0.1,0.8-0.2,1.2-0.3c0.3,0,0.4,0.1,0.3,0.4c-0.4,0-0.8,0-1.2,0.3c0.3,0,0.6-0.1,0.9-0.1c0.3-0.1,0.4,0,0.4,0.3
		c0,0.8,0,1.7,0,2.5c0,0.2-0.1,0.3-0.2,0.5c-0.2,0.2-0.5,0.4-0.8,0.7c1.2,0,2.2,0,3.3,0c0.1,0,0.1-0.1,0.2-0.1
		c-0.3-0.2-0.5-0.4-0.8-0.7C128.2,182.2,128.2,182.1,128.2,182z M128.2,173.9c0.8-0.1,1.6-0.1,2.4,0.2c0.8,0.3,1.2,0.9,1.2,1.9
		c0,0.8-0.4,1.4-1.2,1.6c-0.6,0.2-1.2,0.2-1.8,0.3c0-0.9,0-1.7,0-2.4c0-0.9,0-1,0.9-0.9c0.5,0,1,0.2,1.5,0.2
		c-0.7-0.6-1.6-0.3-2.6-0.4c0,1.2,0,2.3,0,3.4c-0.2,0-0.3,0-0.4,0C128.2,176.5,128.2,175.2,128.2,173.9z"/>
	<path class="st1" d="M105.2,183.1c0,0-0.1,0.1-0.1,0.1c0.8,0,1.5,0,2.2,0c-0.6-0.6-0.6-0.6-0.6-1.5c0-1.3,0-2.6,0-3.9
		c0-0.6,0.1-1.1,0.6-1.4c0,0,0-0.1,0.1-0.1c-0.8,0-1.5,0-2.3,0c0.2,0.1,0.3,0.2,0.3,0.3c0.1,0.1,0.2,0.2,0.2,0.4c0,0.8,0,1.6,0,2.4
		c-0.7,0-1.3,0-2,0c0-0.5,0-1,0-1.4c0-0.5,0-1,0.5-1.3c0,0,0-0.1,0-0.1c-0.4,0.3-0.7,0.6-0.6,1.1c0.1,0.6,0,1.2,0,1.7
		c0,0-0.1,0-0.1,0.1c-0.1-0.1-0.2-0.2-0.2-0.3c0-0.4,0-0.7,0-1.1c0-0.6-0.1-1.3,0.6-1.7c-0.8,0-1.5,0-2.4,0c0.1,0.1,0.2,0.2,0.3,0.3
		c0.3,0.2,0.4,0.5,0.4,0.9c0,0.5,0,1.1,0,1.6c0,0.2,0,0.3-0.3,0.4c-0.4,0.1-0.6,0.4-0.8,0.9c0.3-0.3,0.6-0.5,1.1-0.4
		c-0.3,0.2-0.6,0.3-0.9,0.5c0,0,0,0,0,0.1c0.2-0.1,0.5-0.2,0.8-0.3c0,0.6,0,1.1,0,1.6c0,0.6,0,1.1-0.6,1.4c0,0,0,0,0,0.1
		c0.7,0,1.4,0,2.2,0c0.3,0,0.4,0.1,0.5,0.4c-0.9,0-1.7,0-2.5,0c0,0,0,0,0,0.1c0.9,0,1.8,0,2.7,0c-0.2-0.2-0.3-0.4-0.5-0.5
		c-0.1-0.2-0.3-0.3-0.4-0.5c0-0.7,0-1.5,0-2.2c0.7,0,1.3,0,2,0c0,0.5,0,1,0,1.4C105.8,182.3,105.7,182.8,105.2,183.1z M104.8,180.3
		c-0.4,0-0.7,0-1.1,0c0.1,0.9-0.2,1.9,0.2,2.7c-0.4-0.2-0.5-0.3-0.5-0.8c0-0.7,0-1.5,0-2.2c0.8,0,1.6,0,2.4,0
		C105.5,180.3,105.1,180.3,104.8,180.3z"/>
	<path class="st1" d="M119.1,179.8c0.3-0.1,0.6-0.2,0.8-0.4c0.5-0.3,0.9-0.6,1-1.2c0.1-0.7-0.2-1.3-0.9-1.7
		c-0.9-0.4-1.8-0.5-2.7-0.3c-0.6,0.1-1.1,0.3-1.6,0.5c0.2,0.2,0.4,0.4,0.4,0.6c0,0.7,0,1.5,0,2.2c0,0.2-0.1,0.3-0.3,0.3
		c-0.4-0.1-0.5,0.2-0.6,0.5c0.3,0,0.5-0.1,0.8-0.1c0,0.5-0.5,0.3-0.6,0.6c0.2,0,0.4-0.1,0.7-0.1c-0.2,0.8,0.4,1.8-0.6,2.4
		c0,0,0,0,0,0.1c0.7,0,1.4,0,2.1,0c-0.2-0.2-0.5-0.5-0.5-0.7c-0.1-0.8,0-1.6,0-2.3c0.4-0.1,0.8-0.1,1.1-0.2c0.1,0,0.2,0.1,0.3,0.2
		c0,0,0,0.1,0,0.1c-0.4,0.1-0.7,0.2-1.1,0.3c0,0.5,0,1.1,0,1.6c0,0.4,0.1,0.6,0.3,0.9c0.1,0.1,0.3,0.3,0.5,0.5c-0.9,0-1.7,0-2.5,0
		c0,0,0,0,0,0.1c0.9,0,1.8,0,2.7,0c-0.3-0.3-0.5-0.5-0.7-0.8c-0.1-0.1-0.2-0.2-0.2-0.3c0-0.6,0-1.1,0-1.7c0-0.1,0.1-0.2,0.2-0.2
		c0.3-0.1,0.6-0.2,1-0.2c0.3,1.2,0.7,2.5,1,3.7c0.5-0.3,1-0.5,1.6-0.8C120.3,182.3,119.6,181.1,119.1,179.8z M117.6,179.7
		c0-0.9,0-1.7,0-2.6c0.6-0.1,1.1-0.1,1.6,0.2c-0.5-0.4-1.1-0.4-1.8-0.3c0,0.8,0,1.6,0,2.4c0,0.2,0,0.4-0.3,0.3c0-0.9,0-1.8,0-2.8
		c0-0.1,0.1-0.2,0.2-0.2c0.6-0.2,1.2-0.2,1.8,0.1c0.8,0.5,0.9,1.6,0.2,2.2C118.8,179.4,118.3,179.6,117.6,179.7z"/>
	<path class="st1" d="M146.8,179.8c0.4-0.2,0.8-0.4,1.2-0.7c0.9-0.7,0.8-1.9-0.2-2.5c-0.6-0.4-1.3-0.5-2-0.5c-0.9,0-1.8,0.2-2.5,0.7
		c0.2,0.2,0.4,0.4,0.4,0.6c0,0.7,0,1.5,0,2.2c0,0.2-0.1,0.3-0.3,0.3c-0.4-0.1-0.5,0.2-0.5,0.5c0.3,0,0.5-0.1,0.8-0.1
		c0,0.5-0.5,0.3-0.6,0.5c0.2,0,0.4-0.1,0.6-0.1c0,0.4,0,0.7,0,1.1c0.1,0.5,0,0.9-0.5,1.2c0,0-0.1,0.1-0.1,0.2c0.7,0,1.4,0,2.1,0
		c0,0,0.1-0.1,0.1-0.1c-0.1-0.1-0.3-0.2-0.4-0.3c-0.1-0.1-0.2-0.2-0.2-0.3c0-0.7,0-1.4,0-2.1c0-0.1,0.1-0.2,0.2-0.2
		c0.3-0.1,0.6-0.1,0.9-0.2c0.1,0,0.2,0.1,0.3,0.1c-0.1,0.1-0.1,0.2-0.2,0.2c-0.3,0.1-0.6,0.1-0.9,0.2c0,0.5,0,1,0,1.4
		c0,0.5,0.1,0.9,0.5,1.2c0.1,0.1,0.2,0.2,0.3,0.4c-0.9,0-1.7,0-2.5,0c0,0,0,0,0,0.1c0.9,0,1.7,0,2.7,0c-0.3-0.3-0.5-0.5-0.7-0.8
		c-0.1-0.1-0.2-0.2-0.2-0.4c0-0.5,0-1.1,0-1.6c0-0.1,0.1-0.2,0.2-0.3c0.3-0.1,0.6-0.2,1-0.3c0.3,1.2,0.7,2.5,1,3.7
		c0.5-0.3,1-0.5,1.6-0.8C148,182.2,147.3,181.1,146.8,179.8z M145.2,179.7c0-0.8,0-1.6,0-2.4c0-0.1,0.1-0.2,0.2-0.2
		c0.5-0.1,1,0,1.5,0.3c-0.3-0.4-1.4-0.6-1.8-0.4c-0.1,0.1-0.1,0.2-0.1,0.3c0,0.7,0,1.4,0,2.1c0,0.2,0,0.4-0.3,0.3c0-0.9,0-1.8,0-2.8
		c0-0.1,0.1-0.2,0.2-0.2c0.6-0.2,1.2-0.2,1.7,0.1c0.9,0.5,1,1.6,0.2,2.3C146.5,179.4,145.9,179.6,145.2,179.7z"/>
	<path class="st1" d="M139.4,183c0,0-0.1,0.1-0.1,0.2c0.9,0,1.7,0,2.5,0c-0.7-0.4-0.9-1-1.1-1.7c-0.2-0.5-0.4-1.1-0.6-1.6
		c0.3-0.1,0.6-0.1,0.9-0.2c-0.1-0.3-0.2-0.6-0.4-0.9c-0.1,0.1-0.3,0.2-0.4,0.3c-0.2-0.5-0.4-1-0.6-1.5c-0.2-0.4-0.2-0.7,0.2-0.9
		c0.1,0,0.1-0.1,0.1-0.2c0,0-0.1-0.1-0.1-0.1c-0.1,0.1-0.1,0.2-0.2,0.2c-0.3,0.3-0.3,0.5-0.2,0.9c0.2,0.5,0.4,0.9,0.5,1.4
		c0,0.1,0,0.2-0.1,0.3c-0.1-0.1-0.2-0.1-0.2-0.2c-0.2-0.5-0.4-1.1-0.6-1.6c-0.2-0.4-0.2-0.7,0.2-1c0,0,0.1-0.1,0.1-0.2
		c-0.8,0-1.5,0-2.3,0c0.2,0.2,0.3,0.3,0.4,0.4c0.1,0.1,0.1,0.2,0.1,0.3c-0.2,0.6-0.4,1.2-0.7,1.9c-0.2-0.1-0.4-0.3-0.6-0.4
		c0.1,0.4,0.6,0.4,0.4,0.9c-0.2-0.2-0.4-0.3-0.6-0.5c-0.1,0.3-0.3,0.6-0.4,0.8c0.2,0.1,0.4,0.1,0.6,0.2c0.1,0.1,0.2,0.2,0.2,0.3
		c-0.4,1.1-0.7,2.3-1.8,3c0,0,0,0.1,0,0.1c0.8,0,1.6,0,2.4,0c-1.1-1-0.4-1.9,0-2.9c0.1,0.1,0.1,0.3,0.1,0.4
		c-0.1,0.3-0.2,0.5-0.3,0.8c-0.2,0.6-0.1,1.2,0.3,1.7c0.1,0.1,0.1,0.2,0.2,0.3c-0.9,0-1.8,0-2.6,0c0,0,0,0,0,0.1c0.9,0,1.8,0,2.7,0
		c-0.2-0.5-0.5-0.9-0.6-1.4c0-0.5,0.2-1,0.3-1.5c0,0,0.1,0,0.1,0c0.3,0.4,0.5,0.8,0.8,1.1c0.3-0.4,0.7-0.8,1-1.2
		c0,0,0.1,0.1,0.1,0.1c0.1,0.5-0.6,0.7-0.7,1.2c0.3-0.3,0.5-0.6,0.8-0.9c0.1,0.3,0.2,0.6,0.4,0.9C139.9,182.6,139.9,182.6,139.4,183
		z M138.2,180.9c0,0-0.1,0-0.1,0c-0.3-0.4-0.6-0.7-0.9-1.1c0-0.1-0.1-0.2,0-0.2c0.3-0.7,0.5-1.4,0.8-2.1c0,0,0.1,0,0.1,0
		c0,0.2,0,0.4,0,0.6c-0.1,0.5-0.3,0.9-0.5,1.4c0,0.1,0,0.3,0.1,0.4c0.2,0.2,0.4,0.5,0.6,0.7C138.2,180.6,138.2,180.7,138.2,180.9z
		 M138.7,180.2c-0.1,0.1-0.2,0.2-0.3,0.3c-0.2-0.3-0.5-0.6-0.7-0.9c0,0,0-0.1,0-0.2c0.2-0.5,0.3-0.9,0.6-1.5
		c0.3,0.7,0.5,1.3,0.7,1.9C138.9,180,138.8,180.1,138.7,180.2z"/>
	<path class="st1" d="M108.8,183c-0.1,0-0.1,0.1-0.1,0.2c2,0,3.9,0,5.8,0c-0.3-0.5-0.6-1.1-0.9-1.6c-0.3,0.4-0.5,1-1,1.1
		c-0.5,0.1-1,0.1-1.6,0.2c0-1,0-1.8,0-2.7c0.3,0,0.7,0,1,0c0,0,0,0,0-0.1c-0.4,0-0.7,0-1.1,0c0,0.1,0,0.1,0,0.2c0,0.8,0,1.5,0,2.3
		c0,0.1-0.1,0.2-0.2,0.3c-0.1-0.1-0.2-0.2-0.2-0.3c0-0.4,0-0.7,0-1.1c0-0.6,0-1.1,0-1.7c0.5,0,0.9-0.1,1.3,0
		c0.3,0.1,0.6,0.4,0.9,0.7c0-0.6,0-1.3,0-1.9c-0.4,0.6-0.9,1-1.7,0.7c0-0.7,0-1.3,0-2c0.7,0,1.4-0.2,2,0.4c0,0,0-0.1,0.1-0.1
		c-0.2-0.1-0.4-0.3-0.6-0.3c-0.4-0.1-0.8-0.1-1.2-0.1c-0.3,0-0.3,0.1-0.3,0.4c0,0.6,0,1.1,0,1.7c0,0.1-0.1,0.1-0.1,0.2
		c-0.1-0.1-0.2-0.1-0.2-0.2c0-0.8,0-1.5,0-2.4c1.1,0,2.4-0.4,2.9,1.1c0.3-0.5,0.6-1,0.9-1.5c-1.8,0-3.7,0-5.6,0
		c0.2,0.2,0.4,0.3,0.6,0.5c0.1,0.1,0.2,0.2,0.2,0.4c0,0.6,0,1.2,0,1.8c0,0.2-0.1,0.3-0.3,0.3c-0.4,0-0.6,0.3-0.8,0.6
		c0.3-0.1,0.5-0.2,0.8-0.2c0.1,0,0.2,0.1,0.2,0.1c-0.1,0.1-0.1,0.1-0.2,0.2c-0.2,0.1-0.4,0.2-0.7,0.2c0,0,0,0,0,0.1
		c0.3-0.1,0.5-0.1,0.8-0.2c0,0.6,0,1.2,0,1.7C109.4,182.3,109.3,182.7,108.8,183z"/>
	<path class="st1" d="M161.9,181.5c-0.4,1.3-1.5,1.3-2.6,1.2c0-0.9,0-1.8,0-2.7c0.3,0,0.7,0,1,0c0,0,0,0,0-0.1c-0.4,0-0.7,0-1.1,0
		c0,0.8,0,1.7,0,2.5c0,0.1-0.1,0.2-0.2,0.3c-0.1-0.1-0.2-0.2-0.2-0.3c0-0.6,0-1.2,0-1.9c0-0.3,0-0.6,0-0.9c0.5,0,0.9-0.1,1.3,0
		c0.3,0.1,0.6,0.5,0.9,0.7c0-0.6,0-1.3,0-1.9c-0.4,0.6-0.9,1-1.7,0.7c0-0.6,0-1.2,0-1.8c0-0.1,0.2-0.2,0.3-0.2
		c0.6,0,1.2-0.1,1.8,0.3c-0.2-0.1-0.3-0.3-0.5-0.3c-0.4-0.1-0.8-0.1-1.1-0.1c-0.3,0-0.5,0.1-0.5,0.4c0,0.5,0,1,0,1.6
		c0,0.1-0.1,0.2-0.2,0.2c-0.1-0.1-0.2-0.1-0.2-0.2c0-0.8,0-1.5,0-2.3c0.6,0,1.2,0,1.7,0c0.7,0,0.9,0.6,1.2,1.1
		c0.3-0.5,0.6-1,0.9-1.5c-1.8,0-3.7,0-5.6,0c0.2,0.2,0.3,0.2,0.4,0.4c0.1,0.1,0.3,0.2,0.3,0.4c0,0.7,0,1.5,0,2.2
		c-0.8,0.2-0.9,0.3-1,0.7c0.2-0.1,0.5-0.2,0.8-0.2c0.1,0,0.2,0.1,0.2,0.1c-0.1,0.1-0.1,0.2-0.2,0.2c-0.2,0.1-0.4,0.2-0.7,0.2
		c0,0,0,0.1,0,0.1c0.3-0.1,0.5-0.1,0.8-0.2c0,0.5,0,1,0,1.4c0,0.6,0.1,1.3-0.7,1.6c0,0,0.1,0.1,0.1,0.1c1.9,0,3.8,0,5.7,0
		C162.6,182.6,162.2,182.1,161.9,181.5z"/>
	<path class="st1" d="M93.8,181.9c0.7-1.5,0.7-3-0.1-4.4c-1-1.7-3.6-1.7-4.7,0c-0.5,0.7-0.6,1.5-0.6,2.3c0,0-0.1,0-0.1,0
		c0.1,0.6,0.2,1.2,0.4,1.8c0.5,1.1,1.3,1.7,2.5,1.8C92.4,183.4,93.3,182.9,93.8,181.9z M89.8,181.9c-0.5-1.4-0.5-2.8,0-4.2
		c0.3-0.7,0.9-1.1,1.6-1c0.7,0.1,1.2,0.5,1.4,1.2c0.1,0.2,0.1,0.5,0.1,0.7c0,0.4,0,0.7,0.1,1.1c0,0,0.1,0,0.1,0
		c-0.1,0.7-0.2,1.4-0.4,2.1c-0.2,0.6-0.7,1-1.4,1C90.7,182.9,90.1,182.5,89.8,181.9z"/>
	<path class="st1" d="M96.5,183c0.8,0.2,1.6,0.4,2.4,0.2c0.9-0.2,1.6-1,1.6-1.9c0.1-0.9-0.4-1.6-1.3-2c-0.4-0.1-0.8-0.2-1.2-0.3
		c-0.4-0.1-0.9-0.2-1.2-0.5c-0.7-0.4-0.7-1.4,0.1-1.8c0.8-0.5,1.9-0.1,2.3,0.8c0.1,0.2,0.1,0.3,0.2,0.5c0.3-0.6,0.5-1.2,0.7-1.6
		c-0.4,0-0.8-0.1-1.2-0.2c-0.8-0.2-1.6-0.3-2.3,0c-0.7,0.3-1.2,1-1.2,1.7c0,0.8,0.4,1.4,1.2,1.7c0.3,0.1,0.6,0.2,0.8,0.2
		c0.5,0.2,1.1,0.3,1.6,0.5c0.5,0.2,0.8,0.8,0.7,1.3c-0.1,0.5-0.4,0.9-1,1c-1,0.2-2.4-0.1-2.7-1.6c0,0,0-0.1-0.1-0.1
		c-0.3,0.6-0.6,1.3-1,1.9C95.5,182.8,96,182.9,96.5,183z"/>
	<path class="st1" d="M151.8,183.1c0,0,0,0.1,0,0.1c0.7,0,1.5,0,2.2,0c0,0,0-0.1,0.1-0.1c-0.1-0.1-0.2-0.1-0.3-0.2
		c-0.3-0.2-0.3-0.4-0.2-0.7c0.2-0.4,0.3-0.8,0.5-1.2c0.9-2.2,1.4-4.6,3-6.3c-0.7,0.3-1.5,0.5-2.2,0.8c0.4,0.6,0.4,0.9,0.1,1.7
		c-0.3,1-0.7,2-1.1,3c-0.1,0.4-0.3,0.7-0.4,1.1c0,0-0.1,0-0.1,0c-0.4-1.2-0.8-2.3-1.2-3.5c-0.2-0.4-0.3-0.8,0.2-1.1c0,0,0,0,0-0.1
		c-0.5,0.4-0.5,0.4-0.3,1c0.4,1.2,0.9,2.5,1.3,3.7c0.1,0.3,0,0.5-0.2,0.7c-0.1-0.2-0.1-0.3-0.1-0.4c-0.5-1.3-0.9-2.7-1.4-4
		c-0.2-0.5-0.2-0.8,0.3-1.1c0.1-0.1,0.1-0.2,0.2-0.3c-0.9,0-1.7,0-2.5,0c0.2,0.2,0.4,0.3,0.5,0.5c0.1,0.2,0.3,0.3,0.4,0.5
		c0.6,1.5,1.1,3.1,1.6,4.6C152.3,182.4,152.4,182.8,151.8,183.1z"/>
	<path class="st1" d="M86.3,182c-0.9-1.7-1.7-3.5-2.5-5.2c0-0.1,0-0.3,0-0.4c0.5-0.6,1-1.2,1.6-1.7c0.5-0.5,1.1-0.9,1.9-1.1
		c-0.1,0-0.2,0-0.4,0c-0.7,0.2-1.3,0.6-1.8,1.1c-0.5,0.5-1,1.1-1.5,1.6c-0.2,0.2-0.2,0.3-0.1,0.6c0.8,1.7,1.7,3.4,2.5,5.1
		c0.1,0.2,0.3,0.4,0.5,0.5c0.4,0.3,0.8,0.6,1.2,0.9c0,0,0,0.1,0,0.1c-1.4,0-2.8,0-4.2,0c0,0,0,0.1,0,0.1c1.6,0,3.2,0,4.9,0
		c-0.7-0.4-1.3-0.8-1.8-1.3C86.5,182.3,86.4,182.2,86.3,182z"/>
	<path class="st1" d="M129.1,182.9C129.1,182.9,129.1,182.9,129.1,182.9C129.1,182.9,129.1,182.9,129.1,182.9
		C129.1,182.9,129.1,182.9,129.1,182.9z"/>
	<path class="st1" d="M133.3,174.1c0.1,0.1,0.2,0.3,0.2,0.4c1,1.5,0.3,3.6-1.4,4.1c-0.4,0.1-0.9,0.2-1.3,0.2c-0.7,0-1.4,0-2.2,0
		c0,0.9,0,1.7,0,2.5c0,0.6-0.1,1.1,0.5,1.5c0,0,0,0,0,0.1c0.2,0.2,0.3,0.3,0.5,0.5c0,0,0,0.1-0.1,0.1c-1.1,0-2.3,0-3.4,0
		c0,0.1,0,0.1,0,0.2c1.3,0,2.5,0,3.9,0c-0.1-0.1-0.1-0.2-0.1-0.2c-1-0.8-1.2-1.9-1.1-3.1c0-0.2,0-0.4,0-0.6c0-0.2,0-0.5,0-0.7
		c1-0.1,1.9-0.1,2.7-0.2c1.8-0.2,2.7-1.4,2.6-3.2C134,175.1,133.8,174.5,133.3,174.1z"/>
	<path class="st1" d="M155.4,178.8c0.5-1.4,1.1-2.7,2.1-3.8c-0.2,0.2-0.4,0.3-0.5,0.5c-0.4,0.7-0.9,1.4-1.2,2.1
		c-0.7,1.6-1.3,3.3-1.9,4.9c-0.1,0.2,0,0.3,0.1,0.5c0.2,0.2,0.3,0.4,0.5,0.6c-0.9,0-1.7,0-2.4,0c0,0,0,0,0,0.1c0.9,0,1.8,0,2.7,0
		c-0.2-0.3-0.4-0.5-0.6-0.7c-0.2-0.2-0.2-0.4-0.1-0.6C154.5,181.2,154.9,180,155.4,178.8z"/>
	<path class="st1" d="M107.3,182.1c0-1.3,0-2.7,0-4c0-0.6,0-1.1,0.5-1.4c0,0,0,0,0-0.1c-0.4,0.3-0.6,0.6-0.6,1.1c0,1.4,0,2.9,0,4.3
		c0,0.5,0.1,0.9,0.5,1.2c0.1,0.1,0.1,0.2,0.3,0.4c-0.9,0-1.7,0-2.5,0c0,0,0,0,0,0.1c0.9,0,1.8,0,2.7,0c-0.2-0.2-0.3-0.4-0.5-0.5
		C107.3,182.8,107.2,182.5,107.3,182.1z"/>
	<path class="st1" d="M93.9,177.2c0.7,1.1,0.8,2.3,0.6,3.6c-0.2,1.4-1.1,2.5-2.3,2.7c-0.5,0.1-1.1,0-1.7,0c0.1,0,0.2,0.1,0.3,0.1
		c1.2,0.3,2.2,0,3-0.9c1.1-1.3,1.2-3.9,0.2-5.3C94,177.3,94,177.3,93.9,177.2z"/>
	<path class="st1" d="M99.7,183.3c-0.7,0.4-1.4,0.4-2.1,0.3c-0.6-0.1-1.3-0.2-1.9-0.3c-0.2,0-0.4,0.1-0.5,0.1
		c0.6,0.1,1.2,0.2,1.7,0.2c0.3,0,0.5,0.1,0.8,0.2c1.1,0.1,2.1-0.1,2.9-1c0.6-0.7,0.6-1.9,0.1-2.5
		C101.2,181.5,100.9,182.6,99.7,183.3z"/>
	<path class="st1" d="M141.6,182.6c-0.3-0.4-0.4-0.9-0.5-1.3c0-0.1-0.1-0.1-0.1-0.2c-0.1-0.3-0.2-0.6-0.3-0.9c0.4,0,0.7,0,1.1,0.1
		c-0.2-0.5-0.4-0.9-0.6-1.3c0,0-0.1,0-0.1,0c0.2,0.4,0.3,0.7,0.5,1.2c-0.4,0-0.7,0-1,0c0.3,0.8,0.5,1.5,0.8,2.2
		c0.1,0.2,0.3,0.4,0.4,0.6c0.2,0.2,0.4,0.4,0.6,0.6c0,0,0,0.1-0.1,0.1c-0.9,0-1.7,0-2.6,0c0,0,0,0,0,0.1c1,0,1.9,0,3,0
		C142.2,183.3,141.8,183,141.6,182.6z"/>
	<path class="st1" d="M114,181.8C114,181.8,114,181.8,114,181.8c0.2,0.4,0.5,0.8,0.7,1.1c0.1,0.1,0.1,0.3,0.2,0.4
		c-0.2,0.1-0.3,0.2-0.5,0.2c-1.7,0-3.4,0-5.1,0c-0.1,0-0.3,0-0.4,0c0,0,0,0.1,0,0.1c0.1,0,0.3,0,0.4,0c1.5,0,3,0,4.5,0
		c0.3,0,0.5,0,0.8,0c0.1,0,0.3-0.2,0.4-0.3c0,0,0-0.2-0.1-0.3C114.7,182.6,114.4,182.2,114,181.8z"/>
	<path class="st1" d="M163.2,182.9c0.1,0.1,0.1,0.3,0.2,0.4c-0.2,0.1-0.3,0.2-0.5,0.2c-1.7,0-3.4,0-5.1,0c-0.1,0-0.3,0-0.4,0
		c0,0,0,0.1,0,0.1c0.2,0,0.3,0,0.5,0c1.6,0,3.3,0,4.9,0c0.4,0,0.6-0.1,0.7-0.4c-0.4-0.5-0.7-1-1.1-1.5
		C162.7,182.2,163,182.5,163.2,182.9z"/>
	<path class="st1" d="M147.3,180.1c0.1,0.3,0.3,0.7,0.5,1.1c0,0,0,0,0.1,0c-0.1-0.4-0.3-0.7-0.4-1.1c1.5-0.8,1.9-1.7,1.4-2.7
		c0.2,0.6,0.2,1.2-0.2,1.6C148.2,179.4,147.8,179.7,147.3,180.1z"/>
	<path class="st1" d="M99.4,181.1c-0.2-0.1-0.4-0.3-0.7-0.4c-0.9-0.4-2-0.3-2.9-1c0.1,0.2,0.3,0.3,0.5,0.4c0.4,0.1,0.8,0.2,1.2,0.4
		C98.2,180.7,98.8,180.9,99.4,181.1z"/>
	<path class="st1" d="M122,183.3c-0.7,0.3-1.4,0.6-2.1,1c0,0,0,0.1,0,0.1c0.7-0.3,1.5-0.7,2.2-1c-0.6-0.6-1.2-1.3-1.8-1.8
		C120.8,182.2,121.4,182.8,122,183.3z"/>
	<path class="st1" d="M119.7,180.1c0.1,0.2,0.2,0.5,0.3,0.8c0,0,0,0,0.1,0c-0.1-0.3-0.2-0.5-0.3-0.8c1.5-0.9,1.9-1.8,1.3-2.7
		c0.2,0.6,0.2,1.2-0.2,1.7C120.6,179.4,120.1,179.7,119.7,180.1z"/>
	<path class="st1" d="M97.8,177c0.4,0.1,0.8,0.2,1.1,0.3c-0.4-0.5-1.2-0.6-1.7-0.3c-0.3,0.2-0.5,0.5-0.5,0.8c0,0.4,0.2,0.6,0.6,0.8
		c-0.1-0.1-0.1-0.1-0.2-0.2c-0.3-0.3-0.4-0.6-0.3-1C97.1,177.1,97.4,176.9,97.8,177z"/>
	<path class="st1" d="M149.6,183.4c-0.7,0.3-1.4,0.6-2,0.9c0,0,0,0.1,0,0.1c0.7-0.3,1.5-0.7,2.3-1c-0.3-0.3-0.7-0.6-1-0.8
		C149.1,182.8,149.4,183.1,149.6,183.4z"/>
	<path class="st1" d="M148.8,182.5C148.8,182.5,148.8,182.5,148.8,182.5C148.8,182.5,148.8,182.5,148.8,182.5L148.8,182.5z"/>
	<path class="st1" d="M99.8,178.2c0.3-0.5,0.5-1.1,0.8-1.6c0,0-0.1,0-0.1,0c-0.3,0.5-0.5,1.1-0.8,1.6
		C99.7,178.2,99.8,178.2,99.8,178.2z"/>
	<path class="st1" d="M162.9,176.7C162.9,176.6,162.9,176.6,162.9,176.7c-0.4,0.4-0.7,0.9-1,1.4c0,0,0.1,0,0.1,0
		C162.4,177.6,162.7,177.1,162.9,176.7z"/>
	<path class="st1" d="M113.6,178.1c0.3-0.5,0.6-0.9,0.9-1.4c0,0-0.1,0-0.1-0.1C114.1,177.1,113.8,177.6,113.6,178.1
		C113.5,178,113.6,178.1,113.6,178.1z"/>
	<path class="st1" d="M161.3,180.7C161.3,180.7,161.3,180.7,161.3,180.7c0-0.7,0-1.5,0-2.2c0,0,0,0,0,0
		C161.3,179.3,161.3,180,161.3,180.7z"/>
	<path class="st1" d="M97.1,182.5c-0.2-0.4-0.4-0.7-0.7-1.1C96.5,181.9,96.7,182.3,97.1,182.5z"/>
	<path class="st1" d="M112.8,180.7C112.9,180.7,112.9,180.7,112.8,180.7c0.1-0.7,0.1-1.4,0.1-2.2c0,0,0,0-0.1,0
		C112.8,179.3,112.8,180,112.8,180.7z"/>
	<path class="st1" d="M148.8,182.5L148.8,182.5C148.8,182.5,148.8,182.4,148.8,182.5C148.8,182.4,148.8,182.5,148.8,182.5z"/>
	<path class="st1" d="M147.9,181.5c0.3,0.3,0.5,0.6,0.8,1C148.5,182.1,148.3,181.7,147.9,181.5C148,181.4,148,181.4,147.9,181.5z"/>
	<path class="st1" d="M90.4,177.9c0.3-0.6,0.8-0.9,1.5-0.7c0.1,0,0.3,0.1,0.4,0.1c-0.8-0.6-1.7-0.3-2.1,0.6
		c-0.5,1.2-0.5,2.5-0.1,3.8c0.1,0.3,0.3,0.5,0.4,0.7c-0.6-1.1-0.6-2.3-0.4-3.5C90.1,178.6,90.3,178.2,90.4,177.9z"/>
</g>
</svg>
