<?xml version="1.0" encoding="utf-8"?>
<!-- Generator: Adobe Illustrator 23.0.0, SVG Export Plug-In . SVG Version: 6.00 Build 0)  -->
<svg version="1.1" id="Layer_1" xmlns="http://www.w3.org/2000/svg" xmlns:xlink="http://www.w3.org/1999/xlink" x="0px" y="0px"
	 viewBox="0 0 300 300" style="enable-background:new 0 0 300 300;" xml:space="preserve">
<style type="text/css">
	.st0{fill:#FFFFFF;}
	.st1{fill:#004747;}
	.st2{fill:#B8D8C0;}
	.st3{fill:none;stroke:#004747;stroke-width:7;stroke-miterlimit:10;}
	.st4{fill:none;stroke:#004747;stroke-width:7;stroke-linecap:round;stroke-linejoin:round;stroke-miterlimit:10;}
	.st5{fill:none;stroke:#004747;stroke-width:6;stroke-linecap:round;stroke-miterlimit:10;}
	.st6{fill:#F5F5F5;}
</style>
<g>
	<circle class="st0" cx="150" cy="150" r="150"/>
</g>
<g>
	<path class="st1" d="M223.2,76.8c-40.4-40.4-106-40.4-146.4,0c-40.4,40.4-40.4,106,0,146.4c20.2,20.2,46.7,30.3,73.2,30.3
		s53-10.1,73.2-30.3C263.5,182.8,263.5,117.2,223.2,76.8z M218.2,218.2c-36.8,36.8-96.1,37.6-133.9,2.4l21.9-21.9
		c1.4-1.4,1.4-3.6,0-4.9c-1.4-1.4-3.6-1.4-4.9,0l-21.9,21.9c-16.7-17.9-25.8-41.1-25.8-65.7c0-25.8,10-50,28.3-68.2
		C100.6,63,125.3,53.5,150,53.5c23.6,0,47.2,8.6,65.7,25.8l-23.3,23.3c-1.4,1.4-1.4,3.6,0,4.9c0.7,0.7,1.6,1,2.5,1s1.8-0.3,2.5-1
		l23.3-23.3C255.8,122.1,255,181.4,218.2,218.2z"/>
	<path class="st1" d="M172.3,111.8c-4.4-6.8-7.5-13.9-6.4-22.3c0.1-1.2,0.3-2.1,1.4-2.9c1.3-0.8,1.9-2.1,1.4-3.7
		c-0.4-1.6-1.5-2.5-3.1-2.8c-0.5-0.1-0.9-0.1-1.4-0.1c-9.5,0-18.9,0-28.4,0c-0.7,0-1.4,0-2,0.2c-2.6,0.8-3.5,4.5-1.3,6.1
		c1.6,1.1,1.8,2.4,1.7,4.1c-0.1,1.6,0,3.2,0,4.8c0.1,3.4-0.8,6.5-2.4,9.4c-1,1.9-2.1,3.8-3.3,5.7c-6.7,10.3-9.8,21.6-9.6,33.9
		c0.2,9.7,0,19.4,0,29.1c0,11.2,0,22.4,0,33.6c0,7.8,5.2,13,13,13c12,0,24-0.1,36,0.1c8.2,0.1,13.1-6.3,13.1-13.1
		c-0.1-21.2-0.1-42.4,0-63.6C181.1,131.9,178.5,121.3,172.3,111.8z M173.7,206.4c0,4.4-1.8,6.3-6.2,6.3c-11.7,0-23.4,0-35.1,0
		c-4.2,0-6.1-2-6.1-6.2c0-8.8,0-17.6,0-26.3c0-8.7,0.1-17.3,0-26c0-1.8,0.5-2.9,2.2-3.6c3.7-1.6,7.2-3.4,11.4-3.6
		c4.7-0.3,8.6,1.8,12.4,4c5.9,3.5,12.3,4.6,19,3.8c2.4-0.3,2.5-0.3,2.5,2.1C173.7,173.3,173.7,189.8,173.7,206.4z M173.7,145.2
		c0,1.2-0.6,1.7-1.7,2c-5.8,1.6-11.2,0.7-16.3-2.5c-3.5-2.2-7.1-4.1-11.3-4.8c-5.6-0.9-10.8,0.4-15.9,2.5c-2.1,0.8-2.2,0.8-2.2-1.4
		c0.2-9.7,3.2-18.5,8.5-26.7c2.9-4.4,5.5-9,6.4-14.4c0.5-3.4,0.2-6.8,0.3-10.1c0.1-2.3,0-2.4,2.4-2.4c2.1,0,4.2,0,6.4,0
		c2.2,0,4.4,0.1,6.5,0c1.4,0,1.8,0.5,1.8,1.8c0,3.4-0.3,6.8,0.2,10.1c0.7,5.7,3.5,10.5,6.6,15.2
		C171.5,123.8,174.1,134.1,173.7,145.2z"/>
	<path class="st1" d="M41,108.8c-7.4-2.2-8.3,10.3-12,9.2c-1.3-0.4-2-1.7-1.2-4.5c0.5-1.8,1.6-3.6,3.2-5.1l-3.1-2.5
		c-1.7,1.5-3.1,3.9-3.8,6.5c-1.7,5.7,0.4,9.3,3.8,10.3c7.5,2.2,8.3-10.3,12.1-9.2c1.2,0.4,1.8,1.8,1,4.5c-0.7,2.4-2.3,4.7-4.1,6
		l3,2.6c1.9-1.4,3.8-4.3,4.7-7.5C46.4,113.5,44.4,109.8,41,108.8z"/>
	<polygon class="st1" points="55.1,93.7 51.6,92 46.5,102.2 42.2,100.1 46.5,91.3 43.1,89.7 38.8,98.4 34.7,96.4 39.5,86.5 36,84.8 
		29,99 47.9,108.3 	"/>
	<polygon class="st1" points="59.2,87.5 49.5,79.9 61.2,81.3 62.6,79.6 58.3,68.3 68.2,76.1 71,72.5 54.5,59.5 52.1,62.7 57.5,76.8 
		42.4,74.9 39.9,78 56.3,91.1 	"/>
	<path class="st1" d="M92.8,55.6l-0.1-0.2l3.9-1.9l-0.3-4.9l8.8-4.2l3.6,3.3l4.6-2.2L95.8,30.7l-4.3,2.1L92,54.6l-1.6-2.2l-8.5,6.2
		l-10-13.8L68,47.6l12.3,17L92.8,55.6z M102.1,41.9l-6,2.9L95.6,36L102.1,41.9z"/>
	<path class="st1" d="M124.1,43.4c3.5-0.9,6.2-2.9,7.5-5.8l-3.7-2c-1,1.9-2.5,3.2-4.5,3.7c-3.8,1-7.2-1-8.2-4.8
		c-1-3.8,1-7.2,4.8-8.2c2-0.5,4-0.1,5.7,1.1l2.3-3.6c-2.5-1.8-5.8-2.4-9.3-1.5c-6.3,1.6-9.9,7.2-8.3,13.3
		C112,41.9,117.8,45,124.1,43.4z"/>
	<polygon class="st1" points="137.7,23.5 139,40.5 143.9,40.1 142.6,23.2 149.3,22.6 149,18.7 130.7,20.1 131,24 	"/>
	<path class="st1" d="M162.1,41c6.6,0.7,11.9-3.3,12.6-9.5s-3.7-11.3-10.2-12.1c-6.6-0.7-11.9,3.3-12.6,9.5
		C151.2,35.2,155.5,40.3,162.1,41z M156.8,29.5c0.4-4,3.5-6.4,7.3-6c3.7,0.4,6.2,3.4,5.8,7.4c-0.4,4-3.5,6.4-7.3,6
		C158.8,36.5,156.3,33.5,156.8,29.5z"/>
	<path class="st1" d="M182.6,45.3c5.7,1.8,9.4-0.2,10.4-3.6c2.3-7.4-10.2-8.5-9-12.1c0.4-1.3,1.8-2,4.5-1.1c1.8,0.6,3.5,1.7,5.1,3.3
		l2.5-3.1c-1.5-1.8-3.9-3.2-6.4-3.9c-5.7-1.8-9.3,0.2-10.4,3.6c-2.3,7.4,10.1,8.5,9,12.3c-0.4,1.2-1.8,1.8-4.5,0.9
		c-2.4-0.8-4.7-2.4-6-4.2l-2.7,3C176.5,42.4,179.5,44.3,182.6,45.3z"/>
	<polygon class="st1" points="208,56.1 209.8,52.6 199.6,47.4 201.8,43.1 210.5,47.5 212.2,44.2 203.6,39.7 205.7,35.7 215.5,40.7 
		217.3,37.2 203.1,30 193.5,48.7 	"/>
</g>
</svg>
