<?xml version="1.0" encoding="utf-8"?>
<!-- Generator: Adobe Illustrator 23.0.0, SVG Export Plug-In . SVG Version: 6.00 Build 0)  -->
<svg version="1.1" id="Layer_1" xmlns="http://www.w3.org/2000/svg" xmlns:xlink="http://www.w3.org/1999/xlink" x="0px" y="0px"
	 viewBox="0 0 300 300" style="enable-background:new 0 0 300 300;" xml:space="preserve">
<style type="text/css">
	.st0{fill:#FFFFFF;}
	.st1{fill:#004747;}
	.st2{fill:#B8D8C0;}
	.st3{fill:none;stroke:#004747;stroke-width:7;stroke-miterlimit:10;}
	.st4{fill:none;stroke:#004747;stroke-width:7;stroke-linecap:round;stroke-linejoin:round;stroke-miterlimit:10;}
	.st5{fill:none;stroke:#004747;stroke-width:6;stroke-linecap:round;stroke-miterlimit:10;}
	.st6{fill:#F5F5F5;}
</style>
<g>
	<circle class="st0" cx="150" cy="150" r="150"/>
</g>
<g>
	<path class="st1" d="M223.2,76.8c-30.3-30.3-75-37.9-112.4-22.6c1-0.9,1.3-2.1,0.8-3.2c-0.5-1.1-1.6-1.8-3.4-1.2l-0.2-1.2
		c3.1-1.5,5.2-3.8,6-6.7l-4-1.4c-0.6,2.1-1.9,3.6-3.8,4.4c-3.6,1.6-7.3,0.2-8.8-3.5c-1.6-3.6-0.1-7.3,3.5-8.8
		c1.9-0.8,3.9-0.8,5.8,0.1l1.7-3.9c-2.8-1.4-6.1-1.4-9.4,0c-6,2.6-8.6,8.7-6.1,14.5c2.3,5.2,7.5,7.5,12.9,6.1l0.5,2.8l0.9-0.4
		c1-0.4,1.5-0.3,1.7,0.2c0.2,0.5,0,1.1-1,1.5c-0.7,0.3-1.3,0.4-2,0.4l0.1,2.1c0.2,0,0.4,0,0.5,0c-10.7,5-20.8,11.9-29.6,20.7
		c-40.4,40.4-40.4,106,0,146.4c20.2,20.2,46.7,30.3,73.2,30.3s53-10.1,73.2-30.3C263.5,182.8,263.5,117.2,223.2,76.8z M218.2,218.2
		c-36.8,36.8-96.1,37.6-133.9,2.4l21.9-21.9c1.4-1.4,1.4-3.6,0-4.9c-1.4-1.4-3.6-1.4-4.9,0l-21.9,21.9
		C44.2,177.9,45,118.6,81.8,81.8C100.6,63,125.3,53.5,150,53.5c23.6,0,47.2,8.6,65.7,25.8l-23.3,23.3c-1.4,1.4-1.4,3.6,0,4.9
		c0.7,0.7,1.6,1,2.5,1s1.8-0.3,2.5-1l23.3-23.3C255.8,122.1,255,181.4,218.2,218.2z"/>
	<path class="st1" d="M214.6,146H79.2c-2.4,0-4.7,1.1-6.1,3c-1.5,1.9-2,4.4-1.4,6.7c3.4,13.1,16.8,22.3,32.6,22.3
		c12.8,0,24.5-6.3,30-16l78.1,11.7c4,0.6,8.1-0.6,11.1-3.2c3.1-2.6,4.8-6.5,4.8-10.5C228.5,152.3,222.3,146,214.6,146z M219.1,165.2
		c-1.5,1.3-3.5,1.9-5.5,1.6l-80.6-12c-1.6-0.2-3.1,0.6-3.7,2c-3.8,8.5-13.8,14.2-24.9,14.2c-12.4,0-23.3-7.2-25.9-17
		c-0.1-0.2,0-0.5,0.1-0.6c0.1-0.2,0.4-0.3,0.6-0.3h135.4c3.8,0,6.9,3.1,6.9,6.9C221.5,161.9,220.6,163.8,219.1,165.2z"/>
	<path class="st1" d="M88.7,143c2.3,0,4.2-1.9,4.2-4.2c0-2.3-1.9-4.2-4.2-4.2c-2.3,0-4.2,1.9-4.2,4.2C84.5,141.1,86.4,143,88.7,143z
		"/>
	<path class="st1" d="M98.3,138.8c0,2.3,1.9,4.2,4.2,4.2s4.2-1.9,4.2-4.2c0-2.3-1.9-4.2-4.2-4.2S98.3,136.6,98.3,138.8z"/>
	<path class="st1" d="M112.2,138.8c0,2.3,1.9,4.2,4.2,4.2c2.3,0,4.2-1.9,4.2-4.2c0-2.3-1.9-4.2-4.2-4.2
		C114.1,134.7,112.2,136.6,112.2,138.8z"/>
	<path class="st1" d="M109.4,133.3c2.3,0,4.2-1.9,4.2-4.2c0-2.3-1.9-4.2-4.2-4.2c-2.3,0-4.2,1.9-4.2,4.2
		C105.3,131.4,107.1,133.3,109.4,133.3z"/>
	<path class="st1" d="M97,133.3c2.3,0,4.2-1.9,4.2-4.2c0-2.3-1.9-4.2-4.2-4.2c-2.3,0-4.2,1.9-4.2,4.2
		C92.8,131.4,94.7,133.3,97,133.3z"/>
	<path class="st1" d="M41,108.8c-7.4-2.2-8.3,10.3-12,9.2c-1.3-0.4-2-1.7-1.2-4.5c0.5-1.8,1.6-3.6,3.2-5.1l-3.1-2.5
		c-1.7,1.5-3.1,3.9-3.8,6.5c-1.7,5.7,0.4,9.3,3.8,10.3c7.5,2.2,8.3-10.3,12.1-9.2c1.2,0.4,1.8,1.8,1,4.5c-0.7,2.4-2.3,4.7-4.1,6
		l3,2.6c1.9-1.4,3.8-4.3,4.7-7.5C46.4,113.5,44.4,109.8,41,108.8z"/>
	<polygon class="st1" points="55.1,93.7 51.6,92 46.5,102.2 42.2,100.1 46.5,91.3 43.1,89.7 38.8,98.4 34.7,96.4 39.5,86.5 36,84.8 
		29,99 47.9,108.3 	"/>
	<polygon class="st1" points="59.2,87.5 49.5,79.9 61.2,81.3 62.6,79.6 58.3,68.3 68.2,76.1 71,72.5 54.5,59.5 52.1,62.7 57.5,76.8 
		42.4,74.9 39.9,78 56.3,91.1 	"/>
	<path class="st1" d="M81.9,63.3l-1-4.8l8-5.5l4.1,2.6l4.2-2.9L77.6,40.8l-3.9,2.7l4.2,22.6L81.9,63.3z M85.6,50.8l-5.5,3.8
		l-1.8-8.5L85.6,50.8z"/>
	<polygon class="st1" points="127.1,14.7 122.2,15.8 119.2,20.9 122.7,20.1 	"/>
	<path class="st1" d="M126.7,42.9c5.8-1.3,8.6-5.4,7.3-11.4L131.4,20l-4.7,1l2.5,11.3c0.8,3.9-0.5,5.9-3.4,6.5
		c-2.9,0.6-4.9-0.6-5.8-4.5L117.6,23l-4.7,1l2.5,11.5C116.7,41.5,120.8,44.1,126.7,42.9z"/>
	<path class="st1" d="M149.8,40.3c3.7-0.1,6.7-1.4,8.6-3.9l-3.2-2.8c-1.4,1.7-3.1,2.5-5.2,2.6c-3.9,0.1-6.8-2.7-6.8-6.6
		s2.7-6.8,6.6-6.8c2.1,0,3.9,0.8,5.3,2.4l3.1-2.9c-2-2.4-5.1-3.6-8.7-3.6c-6.5,0.1-11.3,4.7-11.2,11C138.4,36,143.3,40.5,149.8,40.3
		z"/>
	<path class="st1" d="M162.6,40.5l2.6-4.1l9.6,1.7l1,4.8l5,0.9l-5.6-22.3l-4.7-0.8l-12.9,19L162.6,40.5z M172.1,25.7l1.9,8.5
		l-6.6-1.2L172.1,25.7z"/>
	<path class="st1" d="M188.7,40.7l3.9,1.5l0.2,0.1l1.7,6.9l4.9,1.9l-1.9-8c3-0.1,5.3-1.7,6.4-4.6c1.7-4.4-0.5-8.4-5.7-10.4l-8.5-3.3
		L182,44.4l4.5,1.8L188.7,40.7z M192.7,30.3l3.7,1.4c2.8,1.1,3.7,2.9,2.8,5c-0.8,2.1-2.7,2.9-5.5,1.8l-3.7-1.4L192.7,30.3z"/>
</g>
</svg>
