<?xml version="1.0" encoding="UTF-8" standalone="no"?>
<!-- Created with Inkscape (http://www.inkscape.org/) -->

<svg
   width="87mm"
   height="58mm"
   version="1.1"
   viewBox="0 0 87 58"
   id="svg4"
   sodipodi:docname="leaf.svg"
   inkscape:version="1.1.2 (76b9e6a115, 2022-02-25)"
   xmlns:inkscape="http://www.inkscape.org/namespaces/inkscape"
   xmlns:sodipodi="http://sodipodi.sourceforge.net/DTD/sodipodi-0.dtd"
   xmlns="http://www.w3.org/2000/svg"
   xmlns:svg="http://www.w3.org/2000/svg">
  <defs
     id="defs8" />
  <sodipodi:namedview
     id="namedview6"
     pagecolor="#ffffff"
     bordercolor="#666666"
     borderopacity="1.0"
     inkscape:pageshadow="2"
     inkscape:pageopacity="0.0"
     inkscape:pagecheckerboard="0"
     inkscape:document-units="mm"
     showgrid="false"
     inkscape:zoom="1.3404872"
     inkscape:cx="275.64605"
     inkscape:cy="123.46257"
     inkscape:window-width="1326"
     inkscape:window-height="704"
     inkscape:window-x="40"
     inkscape:window-y="27"
     inkscape:window-maximized="1"
     inkscape:current-layer="svg4" />
  <path
     d="M 11.906819,56.502924 C 8.2106385,55.024841 5.5649997,52.704213 4.5620029,50.060618 4.3933634,49.616106 4.3898614,49.555543 4.5146854,49.240512 c 0.07415,-0.187081 0.3131777,-0.823728 0.5310945,-1.414784 1.711568,-4.641102 3.9498004,-9.166194 6.2516141,-12.639093 2.176072,-3.28322 4.535515,-5.85337 7.154168,-7.793331 1.68449,-1.247848 6.137712,-3.720943 8.748915,-4.858596 3.677828,-1.602484 7.740369,-2.700778 11.742688,-3.174761 1.340898,-0.15878 5.833124,-0.562796 7.857597,-0.706685 3.418906,-0.243003 4.07423,-0.299466 5.430268,-0.468008 4.083824,-0.50771 9.683558,-1.882436 15.43101,-3.788245 2.144861,-0.711276 2.475222,-0.854294 1.538241,-0.666441 -2.161108,0.433412 -2.737766,0.5398 -4.463724,0.823779 -3.410876,0.561178 -7.348212,1.035573 -9.866321,1.188711 -1.612136,0.09802 -3.855313,0.09926 -6.154016,0.0034 -4.799339,-0.200156 -7.949372,-0.08685 -11.866195,0.426856 -7.418748,0.973125 -14.249874,3.56723 -19.928175,7.567693 -2.278047,1.605035 -4.170355,3.237893 -6.124503,5.284902 C 8.5449979,31.385316 5.8284839,35.425384 3.604436,39.72378 3.2537177,40.40158 2.9480771,40.966402 2.9252515,40.978911 2.8572992,41.016171 1.9752743,39.90421 1.6266756,39.341917 1.4488842,39.055101 1.1811385,38.526027 1.031698,38.166188 0.04379456,35.78762 0.12616326,33.534557 1.3552026,29.31761 2.3039507,26.064849 3.391379,23.54056 5.1323806,20.555754 6.517647,18.180733 7.9061801,16.304999 9.8100715,14.237081 15.623438,7.9228842 22.875512,4.4177022 32.871952,3.0896522 c 6.052802,-0.803828 12.594005,-0.632907 20.576604,0.537496 1.201937,0.17622 4.939259,0.799343 8.348126,1.391811 7.232407,1.257123 9.938755,1.400026 13.633816,0.719862 2.701532,-0.497347 5.038631,-1.351292 7.505062,-2.742214 1.160438,-0.654407 2.313219,-1.443843 3.170505,-2.17129599 0.308449,-0.261711 0.543577,-0.415037 0.538738,-0.351303 -0.0243,0.319746 -2.120676,4.70407299 -3.617907,7.56653199 C 77.786166,18.059858 71.512882,27.255124 64.799814,34.757529 55.522671,45.125607 45.455964,52.114425 35.1365,55.352428 c -7.073597,2.219008 -14.146897,2.746327 -21.451959,1.599377 -0.617428,-0.09696 -1.143942,-0.1872 -1.170138,-0.200601 -0.02606,-0.01385 -0.299444,-0.125049 -0.607283,-0.248171 z"
     stroke-width="0.073719"
     id="path2"
     style="fill:#eb6e00;fill-opacity:1" />
</svg>
