<?xml version="1.0" encoding="UTF-8"?>
<svg width="87mm" height="58mm" version="1.1" viewBox="0 0 87 58" xmlns="http://www.w3.org/2000/svg">
<path d="m11.907 56.503c-3.6962-1.4781-6.3418-3.7987-7.3448-6.4423-0.16864-0.44451-0.17214-0.50508-0.047318-0.82011 0.07415-0.18708 0.31318-0.82373 0.53109-1.4148 1.7116-4.6411 3.9498-9.1662 6.2516-12.639 2.1761-3.2832 4.5355-5.8534 7.1542-7.7933 1.6845-1.2478 6.1377-3.7209 8.7489-4.8586 3.6778-1.6025 7.7404-2.7008 11.743-3.1748 1.3409-0.15878 5.8331-0.5628 7.8576-0.70668 3.4189-0.243 4.0742-0.29947 5.4303-0.46801 4.0838-0.50771 9.6836-1.8824 15.431-3.7882 2.1449-0.71128 2.4752-0.85429 1.5382-0.66644-2.1611 0.43341-2.7378 0.5398-4.4637 0.82378-3.4109 0.56118-7.3482 1.0356-9.8663 1.1887-1.6121 0.09802-3.8553 0.09926-6.154 0.0034-4.7993-0.20016-7.9494-0.08685-11.866 0.42686-7.4187 0.97312-14.25 3.5672-19.928 7.5677-2.278 1.605-4.1704 3.2379-6.1245 5.2849-2.2523 2.3594-4.9689 6.3995-7.1929 10.698-0.35072 0.6778-0.65636 1.2426-0.67918 1.2551-0.067952 0.03726-0.94998-1.0747-1.2986-1.637-0.17779-0.28682-0.44554-0.81589-0.59498-1.1757-0.9879-2.3786-0.90553-4.6316 0.3235-8.8486 0.94875-3.2528 2.0362-5.777 3.7772-8.7619 1.3853-2.375 2.7738-4.2508 4.6777-6.3187 5.8134-6.3142 13.065-9.8194 23.062-11.147 6.0528-0.80383 12.594-0.63291 20.577 0.5375 1.2019 0.17622 4.9393 0.79934 8.3481 1.3918 7.2324 1.2571 9.9388 1.4 13.634 0.71986 2.7015-0.49735 5.0386-1.3513 7.5051-2.7422 1.1604-0.65441 2.3132-1.4438 3.1705-2.1713 0.30845-0.26171 0.54358-0.41504 0.53874-0.3513-0.0243 0.31975-2.1207 4.7041-3.6179 7.5665-5.2407 10.019-11.514 19.215-18.227 26.717-9.2771 10.368-19.344 17.357-29.663 20.595-7.0736 2.219-14.147 2.7463-21.452 1.5994-0.61743-0.09696-1.1439-0.1872-1.1701-0.2006-0.02606-0.01385-0.29944-0.12505-0.60728-0.24817z" fill="#eb6e00" stroke-width=".073719"/>
</svg>
